<?xml version="1.0" encoding="utf-8"?>
<!-- Generator: Adobe Illustrator 23.0.1, SVG Export Plug-In . SVG Version: 6.00 Build 0)  -->
<svg version="1.1" xmlns="http://www.w3.org/2000/svg" xmlns:xlink="http://www.w3.org/1999/xlink" x="0px" y="0px"
	 viewBox="0 0 592.85 620.64" style="enable-background:new 0 0 592.85 620.64;" xml:space="preserve">
<style type="text/css">
	.st0{fill:#3E3A39;}
	.st1{fill:none;stroke:#000000;stroke-width:9.4121;stroke-miterlimit:10;}
	.st2{fill:#21B8C5;}
	.st3{fill:#B6D55D;}
	.st4{fill:none;stroke:#B6D55D;stroke-width:5.3429;stroke-miterlimit:10;}
	.st5{fill:none;stroke:#B6D55D;stroke-width:4.9736;stroke-miterlimit:10;}
	.st6{fill:none;stroke:#B6D55D;stroke-width:7.5437;stroke-miterlimit:10;}
</style>
<g id="圖層_1">
	<g>
		<g>
			<g>
			</g>
			<g>
			</g>
			<g>
			</g>
			<g>
			</g>
			<path class="st2" d="M336.68,365.03c1.33,1.55,2.73,3.08,4.22,4.57c1.4,1.4,2.84,2.71,4.3,3.99
				c9.25,8.05,20.03,13.91,31.75,17.28c-3.35-11.74-9.23-22.5-17.28-31.75c-1.29-1.46-2.6-2.91-3.99-4.3
				c-1.4-1.4-2.84-2.71-4.3-3.99c-0.47-0.42-0.95-0.78-1.42-1.2c-1.02-0.84-2.06-1.66-3.11-2.48c-0.6-0.42-1.15-0.84-1.75-1.26
				c-1.02-0.71-2.02-1.4-3.06-2.09c-0.62-0.4-1.24-0.8-1.84-1.18c-1.09-0.64-2.15-1.26-3.26-1.89c-0.6-0.33-1.2-0.67-1.8-1
				c-1.26-0.64-2.53-1.24-3.82-1.82c-0.47-0.24-0.91-0.47-1.42-0.67c-1.75-0.78-3.57-1.49-5.39-2.15c-0.27-0.09-0.55-0.16-0.84-0.27
				c-1.33-0.44-2.64-0.87-4.02-1.26c-2.4-0.67-4.79-1.29-7.25-1.75c-1-0.2-2.02-0.29-3.02-0.44c-0.02-0.02-0.02-0.07-0.04-0.09
				c-1.13-0.2-2.26-0.27-3.39-0.42c-0.69-0.07-1.4-0.16-2.11-0.24c-2.46-0.2-4.93-0.35-7.41-0.35c-2.09,0-4.15,0.11-6.23,0.24
				c-0.04,0-0.11,0.02-0.18,0c0.04-0.27,0.13-0.53,0.2-0.82c0-0.13,0.04-0.27,0.09-0.4c0.53-2.75,0.93-5.5,1.22-8.27
				c1.62-0.11,3.24-0.13,4.88-0.13l0.02-0.02c0.4,0,0.82,0.02,1.22,0.02c1.24,0.04,2.48,0.04,3.73,0.13
				c0.71,0.04,1.42,0.09,2.11,0.16c1.04,0.07,2.06,0.16,3.06,0.27c2.55,0.29,5.12,0.64,7.65,1.13c1.73,0.35,3.44,0.78,5.15,1.2
				c0.95,0.24,1.91,0.49,2.84,0.75c1.24,0.36,2.44,0.75,3.64,1.15c0.93,0.31,1.84,0.6,2.77,0.95c1.18,0.42,2.35,0.89,3.55,1.38
				c0.87,0.38,1.77,0.75,2.66,1.15c1.18,0.51,2.31,1.06,3.44,1.66c0.87,0.42,1.73,0.84,2.57,1.29c1.15,0.62,2.26,1.29,3.37,1.95
				c0.8,0.49,1.6,0.93,2.37,1.44c1.18,0.73,2.28,1.53,3.39,2.33c0.71,0.49,1.44,0.95,2.15,1.49c1.2,0.89,2.35,1.86,3.53,2.82
				c0.58,0.49,1.15,0.93,1.73,1.42c1.71,1.49,3.37,3.02,4.97,4.61c2,2,3.84,4.06,5.63,6.21c10.09,12.09,16.97,26.42,19.94,41.95
				l1.31,6.81l-6.81-1.31c-15.53-2.97-29.86-9.85-41.95-19.94c-2.15-1.8-4.21-3.64-6.21-5.63c-1.46-1.46-2.88-3.02-4.24-4.55
				c-8.63-9.87-15.04-21.34-18.88-33.79c0.02,0.02,0.07,0.02,0.09,0c3.75,0.73,7.39,1.71,10.94,2.95
				C325.56,349.65,330.45,357.82,336.68,365.03z M315.36,316.47c0.13,0.04,0.24,0.07,0.35,0.09c0.31,0.04,0.6,0.16,0.89,0.22
				c0-0.09,0-0.13,0-0.22c-0.16-2.06-0.24-4.15-0.24-6.23c0-2.44,0.16-4.95,0.36-7.41c0.09-0.71,0.18-1.38,0.27-2.09
				c0.13-1.15,0.22-2.26,0.4-3.42c0.04,0,0.07-0.02,0.11-0.02c0.13-1.02,0.22-2.04,0.42-3.04c0.47-2.46,1.09-4.86,1.77-7.23
				c-0.02-0.02-0.02-0.02-0.04,0c0.18-0.67,0.38-1.31,0.62-1.95c0.2-0.64,0.42-1.31,0.62-1.95c0.11-0.33,0.22-0.67,0.33-1
				c0.64-1.8,1.35-3.62,2.13-5.37c0.2-0.51,0.47-1,0.71-1.51c0.58-1.24,1.15-2.48,1.77-3.68c0.33-0.64,0.69-1.26,1.04-1.89
				c0.58-1.06,1.2-2.13,1.84-3.17c0.38-0.64,0.8-1.29,1.2-1.91c0.67-1.02,1.35-2.02,2.06-3.04c0.44-0.58,0.84-1.15,1.31-1.75
				c0.78-1.04,1.6-2.09,2.46-3.08c0.4-0.49,0.78-1,1.2-1.46c1.29-1.46,2.6-2.91,3.97-4.28c10.12-10.12,22.47-17.37,36.05-21.27
				c-3.9,13.58-11.16,25.93-21.27,36.05c-1.46,1.46-2.99,2.86-4.57,4.21c-7.21,6.23-15.37,11.11-24.14,14.55
				c-1.24,3.55-2.24,7.17-2.95,10.89c0,0.04,0,0.09-0.02,0.11c12.45-3.84,23.94-10.23,33.79-18.88c1.55-1.38,3.08-2.77,4.55-4.24
				c13.22-13.22,22.07-29.88,25.58-48.16l1.33-6.83l-6.83,1.33c-18.28,3.51-34.94,12.36-48.16,25.58c-1.6,1.6-3.13,3.26-4.61,4.97
				c-0.49,0.58-0.93,1.15-1.42,1.73c-0.95,1.18-1.91,2.31-2.82,3.53c-0.53,0.71-1.02,1.46-1.53,2.2c-0.78,1.09-1.53,2.2-2.26,3.33
				c-0.53,0.8-1,1.62-1.46,2.44c-0.67,1.11-1.31,2.2-1.93,3.31c-0.49,0.89-0.91,1.75-1.35,2.64c-0.55,1.13-1.11,2.22-1.62,3.35
				c-0.4,0.93-0.8,1.86-1.18,2.77c-0.47,1.13-0.91,2.29-1.35,3.44c-0.33,0.95-0.67,1.91-0.98,2.88c-0.4,1.15-0.78,2.33-1.11,3.51
				c-0.27,0.98-0.53,2-0.8,2.97c-0.16,0.64-0.31,1.29-0.49,1.91c-0.22,1.06-0.47,2.11-0.67,3.19c-0.51,2.51-0.87,5.08-1.15,7.63
				c-0.11,1-0.2,2.02-0.27,3.02c-0.07,0.73-0.13,1.46-0.18,2.22c-0.04,1.06-0.07,2.15-0.09,3.24c-0.02,0.55-0.02,1.09,0,1.64
				c-0.02,1.62,0,3.28,0.09,4.93C309.86,315.53,312.63,315.96,315.36,316.47z M235.45,277.11c0.58,0.49,1.18,0.95,1.77,1.42
				c1.13,0.95,2.31,1.91,3.48,2.82c0.75,0.53,1.49,1.04,2.22,1.55c1.11,0.75,2.2,1.53,3.33,2.26c0.82,0.51,1.64,0.98,2.46,1.49
				c1.09,0.64,2.17,1.29,3.28,1.91c0.89,0.49,1.8,0.91,2.68,1.35c1.09,0.55,2.2,1.09,3.31,1.62c0.93,0.4,1.89,0.78,2.82,1.18
				c1.13,0.47,2.24,0.91,3.37,1.33c0.98,0.36,1.97,0.69,2.95,1c1.15,0.4,2.28,0.78,3.44,1.09c1,0.29,2.02,0.55,3.04,0.82
				c0.31,0.09,0.64,0.16,0.95,0.24c1.35,0.33,2.73,0.64,4.1,0.91c2.62,0.53,5.28,0.89,7.96,1.18c0.49,0.04,0.98,0.09,1.49,0.11
				c2.53,0.27,5.06,0.4,7.59,0.4c0.09,0,0.16,0.02,0.22,0c1.8,0.02,3.62-0.02,5.41-0.13c0.22-2,0.49-3.99,0.82-5.97
				c0.16-0.78,0.27-1.55,0.4-2.31c0.09-0.44,0.2-0.82,0.29-1.22c-0.22,0-0.44,0-0.64,0.02c-2.09,0.13-4.17,0.22-6.23,0.2
				c-0.18,0-0.33-0.02-0.49,0c-2.22-0.04-4.41-0.16-6.61-0.35c-0.78-0.07-1.55-0.18-2.35-0.27c-1-0.11-2.02-0.2-3.02-0.35
				c0-0.04-0.02-0.07-0.02-0.11c-1.02-0.13-2.04-0.22-3.04-0.42c-2.44-0.49-4.86-1.09-7.23-1.77l0,0.04
				c-0.6-0.16-1.2-0.35-1.77-0.58c-0.62-0.18-1.22-0.38-1.77-0.58c-0.47-0.16-0.93-0.27-1.38-0.44c-1.82-0.62-3.57-1.35-5.32-2.09
				c-0.55-0.24-1.06-0.53-1.6-0.75c-1.22-0.55-2.42-1.13-3.62-1.75c-0.64-0.33-1.26-0.69-1.89-1.04c-1.09-0.6-2.13-1.2-3.17-1.84
				c-0.64-0.38-1.29-0.8-1.91-1.2c-1.02-0.67-2.02-1.35-3.02-2.09c-0.6-0.42-1.2-0.84-1.77-1.29c-1.06-0.8-2.06-1.62-3.08-2.46
				c-0.49-0.4-1-0.78-1.46-1.2c-1.46-1.29-2.91-2.6-4.3-3.99c-1.35-1.35-2.64-2.77-3.88-4.19c-8.12-9.27-14.02-20.1-17.39-31.86
				c11.76,3.37,22.58,9.27,31.88,17.37c1.42,1.24,2.82,2.55,4.17,3.9c1.49,1.49,2.88,3.02,4.22,4.57
				c6.23,7.21,11.11,15.37,14.58,24.16c3.55,1.24,7.19,2.22,10.91,2.97c0.02-0.02,0.07-0.02,0.09,0
				c-3.82-12.47-10.23-23.94-18.9-33.81c-1.33-1.55-2.77-3.08-4.24-4.55c-1.97-1.97-4.06-3.84-6.21-5.63
				c-12.09-10.09-26.42-16.97-41.95-19.94l-6.81-1.31l1.31,6.81c2.97,15.53,9.85,29.86,19.94,41.95c1.8,2.15,3.66,4.24,5.63,6.21
				C232.1,274.12,233.77,275.65,235.45,277.11z M210.43,401.83c18.28-3.51,34.94-12.36,48.16-25.58c1.62-1.62,3.15-3.28,4.61-4.97
				c0.49-0.58,0.95-1.18,1.44-1.75c0.93-1.15,1.91-2.31,2.8-3.51c0.53-0.71,1.02-1.46,1.53-2.2c0.75-1.11,1.55-2.22,2.26-3.33
				c0.53-0.8,1-1.62,1.46-2.44c0.67-1.11,1.33-2.22,1.95-3.33c0.47-0.87,0.89-1.73,1.33-2.62c0.55-1.13,1.11-2.22,1.64-3.37
				c0.4-0.93,0.78-1.84,1.15-2.75c0.47-1.13,0.93-2.31,1.35-3.44c0.35-0.98,0.69-1.93,0.98-2.88c0.4-1.15,0.78-2.33,1.11-3.51
				c0.29-1,0.53-2,0.78-2.99c0.42-1.66,0.87-3.35,1.18-5.08c0.49-2.4,0.84-4.84,1.11-7.28c0.02-0.24,0.04-0.44,0.07-0.69
				c0.07-0.51,0.11-1,0.16-1.49c0.2-2.51,0.35-5.06,0.38-7.57c0-0.09,0-0.18,0.02-0.24c0-1.82-0.04-3.59-0.16-5.39
				c-2.09-0.22-4.13-0.53-6.19-0.87c-0.71-0.13-1.4-0.24-2.09-0.36c-0.4-0.09-0.82-0.2-1.22-0.29c0.02,0.2,0,0.4,0,0.62
				c0.18,2.26,0.24,4.55,0.2,6.81c-0.02,2.2-0.13,4.35-0.35,6.52c-0.04,0.75-0.16,1.49-0.27,2.22c-0.11,1.04-0.2,2.11-0.36,3.15
				c-0.04,0-0.07,0.02-0.11,0.02c-0.13,1.02-0.22,2.04-0.42,3.04c-0.47,2.46-1.09,4.86-1.77,7.23c0.02,0.02,0.04,0,0.04,0
				c-0.18,0.67-0.38,1.31-0.62,1.95c-0.2,0.64-0.4,1.29-0.62,1.95c-0.11,0.33-0.22,0.67-0.33,1c-0.64,1.8-1.35,3.62-2.13,5.37
				c-0.22,0.49-0.44,0.98-0.67,1.46c-0.6,1.26-1.18,2.51-1.82,3.73c-0.33,0.64-0.67,1.24-1.02,1.86c-0.6,1.09-1.22,2.15-1.86,3.19
				c-0.38,0.64-0.78,1.26-1.18,1.89c-0.69,1.04-1.38,2.04-2.06,3.04c-0.44,0.58-0.87,1.18-1.31,1.75c-0.8,1.06-1.62,2.11-2.48,3.11
				c-0.4,0.49-0.75,0.98-1.18,1.44c-1.29,1.46-2.6,2.91-3.99,4.3c-10.12,10.12-22.47,17.37-36.05,21.27
				c3.9-13.58,11.16-25.93,21.27-36.05c1.49-1.49,3.02-2.88,4.59-4.24c7.19-6.21,15.35-11.09,24.11-14.53
				c1.24-3.55,2.24-7.17,2.97-10.91c0-0.04-0.02-0.07,0-0.09c-12.45,3.84-23.92,10.2-33.77,18.86c-1.55,1.38-3.08,2.77-4.57,4.26
				c-13.22,13.22-22.07,29.88-25.58,48.16l-1.31,6.81L210.43,401.83z"/>
			<g>
				<circle class="st3" cx="296.43" cy="392.84" r="11.39"/>
				<circle class="st3" cx="296.43" cy="227.81" r="11.39"/>
			</g>
			<g>
				<path class="st4" d="M400.12,274.55c8.5,2.91,12.76,17.84,1.36,22.28c-1.19,0.47-2.53,0.59-3.81,0.82
					c-7.16,1.32-12.26,4.83-12.23,12.78c0.04,7.94,5.15,11.18,12.33,12.67c8.39,1.74,12.34,6.55,11.51,13.03
					c-0.8,6.25-6.1,10.73-12.54,10.42c-6.03-0.29-9.86-3.54-10.69-9.44c-1.26-8.93-5.64-14.04-14.96-15.11
					c-6.23-0.71-9.77-5.12-9.87-11.3c-0.11-6.52,3.32-10.96,10.04-11.89c6.19-0.86,11.32-4.13,13.54-10.1c1.08-2.9,1.69-6,3.13-8.74
					C390.18,275.67,395.33,272.92,400.12,274.55z"/>
				<path class="st4" d="M192.73,346.09c-8.5-2.91-12.76-17.84-1.36-22.28c1.19-0.47,2.53-0.59,3.81-0.82
					c7.16-1.32,12.26-4.83,12.23-12.78c-0.04-7.94-5.15-11.18-12.33-12.67c-8.39-1.74-12.34-6.55-11.51-13.03
					c0.8-6.25,6.1-10.73,12.54-10.42c6.03,0.29,9.86,3.54,10.69,9.44c1.26,8.93,5.64,14.04,14.96,15.11
					c6.23,0.71,9.77,5.12,9.87,11.3c0.11,6.52-3.32,10.96-10.04,11.89c-6.19,0.86-11.32,4.13-13.54,10.1c-1.08,2.9-1.69,6-3.13,8.74
					C202.68,344.98,197.52,347.72,192.73,346.09z"/>
			</g>
		</g>
		<circle class="st5" cx="296.43" cy="310.32" r="149.81"/>
		<circle class="st6" cx="296.43" cy="310.32" r="162.31"/>
	</g>
</g>
<g id="圖層_2">
</g>
</svg>
