<?xml version="1.0" encoding="utf-8"?>
<!-- Generator: Adobe Illustrator 23.0.1, SVG Export Plug-In . SVG Version: 6.00 Build 0)  -->
<svg version="1.1" xmlns="http://www.w3.org/2000/svg" xmlns:xlink="http://www.w3.org/1999/xlink" x="0px" y="0px"
	 viewBox="0 0 469.53 362.55" style="enable-background:new 0 0 469.53 362.55;" xml:space="preserve">
<style type="text/css">
	.st0{fill:#3E3A39;}
	.st1{fill:none;stroke:#000000;stroke-width:9.4121;stroke-miterlimit:10;}
	.st2{fill:#21B8C5;}
	.st3{fill:#B6D55D;}
	.st4{fill:none;stroke:#B6D55D;stroke-width:5.3429;stroke-miterlimit:10;}
	.st5{fill:none;stroke:#B6D55D;stroke-width:4.9736;stroke-miterlimit:10;}
	.st6{fill:none;stroke:#B6D55D;stroke-width:7.5437;stroke-miterlimit:10;}
</style>
<g id="圖層_1">
	<g>
		<g>
			<path class="st0" d="M71.57,263.37c0.89,0,1.66,0.33,2.31,0.98c0.65,0.65,0.98,1.42,0.98,2.31v11.43c0,0.3,0.07,0.56,0.22,0.78
				c2.57,3.83,7.04,5.85,13.44,6.08c2.79,0.11,5.74,0.16,8.86,0.16c5.06,0,10.48-0.13,16.28-0.39c0.41-0.04,0.73,0.11,0.95,0.44
				c0.15,0.22,0.22,0.45,0.22,0.67c0,0.15-0.02,0.3-0.06,0.45c-0.19,0.52-0.48,0.95-0.89,1.28c-0.41,0.34-0.88,0.5-1.39,0.5
				c-5.17,0.15-9.87,0.22-14.1,0.22c-3.6,0-6.88-0.06-9.81-0.17c-6.73-0.26-11.69-2.34-14.89-6.24c-0.19-0.22-0.37-0.24-0.56-0.06
				c-2.64,2.3-4.91,4.2-6.8,5.68c-0.37,0.34-0.8,0.46-1.28,0.36c-0.48-0.09-0.86-0.36-1.11-0.81c-0.15-0.33-0.22-0.67-0.22-1
				c0-0.15,0.02-0.32,0.06-0.5c0.11-0.52,0.37-0.95,0.78-1.28c2.42-1.75,4.57-3.44,6.47-5.07c0.19-0.15,0.28-0.37,0.28-0.67v-11.43
				c0-0.3-0.13-0.45-0.39-0.45h-5.46c-0.44,0-0.83-0.16-1.17-0.47c-0.33-0.32-0.5-0.71-0.5-1.17c0-0.47,0.17-0.86,0.5-1.17
				c0.34-0.31,0.73-0.47,1.17-0.47H71.57z"/>
			<path class="st0" d="M230.74,309.57c0.33,0.33,0.5,0.73,0.5,1.17s-0.17,0.84-0.5,1.17c-0.34,0.34-0.73,0.5-1.17,0.5h-2.62
				c-0.26,0-0.44,0.13-0.56,0.39c-1.49,3.49-3.68,6.56-6.58,9.2c-0.19,0.19-0.17,0.35,0.06,0.5c3.12,1.97,6.61,3.49,10.48,4.57
				c0.41,0.11,0.68,0.39,0.83,0.83c0.04,0.15,0.06,0.3,0.06,0.44c0,0.3-0.09,0.56-0.28,0.78c-0.37,0.48-0.84,0.84-1.39,1.06
				c-0.56,0.22-1.11,0.24-1.67,0.06c-3.98-1.26-7.6-3.08-10.87-5.46c-0.22-0.15-0.44-0.15-0.67,0c-2.79,1.97-6.11,3.66-9.98,5.07
				c-0.3,0.11-0.61,0.17-0.95,0.17c-0.33,0-0.67-0.06-1-0.17c-0.63-0.26-1.19-0.67-1.68-1.23c-0.04-0.07-0.08-0.1-0.14-0.08
				c-0.06,0.02-0.1,0.06-0.14,0.14c-0.93,2.86-1.84,5.24-2.73,7.13c-0.18,0.37-0.47,0.62-0.86,0.76c-0.39,0.13-0.77,0.11-1.14-0.06
				c-0.37-0.17-0.62-0.45-0.76-0.84c-0.13-0.39-0.12-0.79,0.03-1.2c0.82-1.89,1.69-4.44,2.62-7.64c0.03-0.11,0.03-0.21-0.03-0.28
				c-0.06-0.07-0.14-0.11-0.25-0.11h-5.19c-0.26,0-0.39,0.13-0.39,0.39v23.75c0,1.01-0.13,1.78-0.39,2.34
				c-0.26,0.56-0.73,0.99-1.39,1.28c-0.93,0.41-2.64,0.61-5.13,0.61c-0.52,0-0.98-0.16-1.39-0.5c-0.41-0.33-0.71-0.76-0.89-1.28
				c-0.15-0.41-0.11-0.78,0.11-1.11c0.22-0.33,0.54-0.5,0.95-0.5c0.67,0,1.25,0,1.73,0c0.97,0,1.63-0.02,1.98-0.06
				c0.35-0.04,0.58-0.1,0.7-0.19s0.17-0.31,0.17-0.64v-19.01c0-0.03-0.02-0.06-0.06-0.06c-0.04,0-0.06,0.02-0.06,0.06
				c-2.2,5.39-4.57,9.65-7.13,12.77c-0.34,0.37-0.74,0.53-1.2,0.47s-0.83-0.31-1.09-0.75c-0.3-0.48-0.42-1.01-0.36-1.59
				c0.06-0.58,0.27-1.09,0.64-1.53c3.16-3.64,5.78-8.32,7.86-14.05c0.04-0.11,0.03-0.21-0.03-0.28c-0.06-0.07-0.14-0.11-0.25-0.11
				h-6.75c-0.49,0-0.89-0.17-1.23-0.5c-0.34-0.33-0.5-0.74-0.5-1.23c0-0.48,0.17-0.89,0.5-1.23c0.33-0.33,0.74-0.5,1.23-0.5h13.44
				c0.07,0,0.13-0.03,0.16-0.08c0.04-0.06,0.02-0.12-0.05-0.19c-2.86-2.49-6.53-4.83-10.99-7.03c-0.37-0.19-0.59-0.48-0.67-0.89
				c-0.07-0.41,0.02-0.76,0.28-1.06c0.52-0.52,1.08-0.78,1.67-0.78c0.34,0,0.69,0.08,1.06,0.22c1.33,0.63,2.62,1.3,3.84,2.01
				c0.26,0.11,0.5,0.09,0.73-0.06c1.97-1.56,3.9-3.42,5.8-5.58c0.07-0.04,0.09-0.09,0.06-0.17c-0.04-0.07-0.09-0.11-0.17-0.11
				h-14.61c-0.45,0-0.84-0.16-1.17-0.5c-0.34-0.33-0.5-0.73-0.5-1.17c0-0.45,0.17-0.83,0.5-1.17c0.33-0.33,0.72-0.5,1.17-0.5h17.67
				c0.07,0,0.13,0,0.17,0c0.37-0.11,0.72-0.06,1.06,0.17l0.73,0.44c0.33,0.22,0.54,0.53,0.61,0.92s0,0.75-0.22,1.09
				c-2.19,2.9-4.94,5.65-8.25,8.25c-0.22,0.19-0.22,0.36,0,0.5c0.93,0.6,1.76,1.16,2.51,1.68c0.63,0.48,0.95,1.15,0.95,2
				c0,0.67-0.24,1.26-0.73,1.79c0,0.04,0.01,0.08,0.03,0.14c0.01,0.06,0.04,0.08,0.08,0.08h4.01c0.04,0,0.07,0,0.11,0
				c0.3-0.11,0.59-0.11,0.89,0l0.78,0.28c0.34,0.11,0.59,0.33,0.76,0.64c0.16,0.32,0.19,0.66,0.08,1.03
				c-0.11,0.45-0.28,1.02-0.5,1.73c-0.04,0.07-0.03,0.15,0.03,0.22c0.06,0.07,0.14,0.09,0.25,0.06c3.87-1.11,7.23-2.6,10.09-4.46
				c0.22-0.15,0.24-0.31,0.06-0.5c-2.23-2.01-4.12-4.26-5.69-6.75c-0.15-0.22-0.31-0.22-0.5,0c-0.89,0.96-1.78,1.9-2.68,2.79
				c-0.41,0.37-0.89,0.56-1.45,0.56c-0.56,0-1.06-0.16-1.51-0.5c-0.41-0.26-0.62-0.63-0.64-1.11c-0.02-0.48,0.16-0.87,0.53-1.17
				c3.57-3.05,6.41-6.73,8.53-11.04c0.26-0.48,0.63-0.86,1.12-1.11c0.3-0.15,0.61-0.22,0.95-0.22c0.19,0,0.37,0.04,0.56,0.11
				c0.48,0.11,0.83,0.39,1.03,0.83c0.21,0.45,0.19,0.89-0.03,1.34c-0.49,1.01-1.04,2.01-1.68,3.01c-0.04,0.07-0.03,0.15,0.03,0.22
				c0.06,0.07,0.12,0.11,0.19,0.11h17.28C230.01,309.07,230.4,309.23,230.74,309.57z M216.47,334.54c-0.07,0.26,0.04,0.39,0.34,0.39
				h9.76c0.89,0,1.63,0.33,2.23,1c0.56,0.56,0.84,1.21,0.84,1.95c0,0.11-0.02,0.22-0.06,0.33c-0.48,4.69-1.01,8.18-1.56,10.48
				c-0.56,2.31-1.25,3.87-2.06,4.69c-0.74,0.78-1.9,1.25-3.46,1.39c-0.63,0.04-1.39,0.06-2.28,0.06c-0.67,0-1.39-0.02-2.17-0.06
				c-0.52,0-0.98-0.18-1.37-0.56c-0.39-0.37-0.68-0.82-0.86-1.33c-0.11-0.41-0.04-0.78,0.19-1.12c0.24-0.33,0.57-0.48,0.98-0.44
				c1.45,0.11,2.77,0.17,3.96,0.17c0.82,0,1.47-0.19,1.95-0.56c1.19-1.23,2.15-5.35,2.9-12.38c0-0.26-0.13-0.39-0.39-0.39h-9.31
				c-0.3,0-0.49,0.13-0.56,0.39c-1.01,3.6-2.55,6.72-4.63,9.34c-2.08,2.62-4.96,4.77-8.64,6.44c-0.52,0.22-1.03,0.25-1.53,0.09
				c-0.5-0.17-0.92-0.47-1.25-0.92c-0.26-0.34-0.34-0.72-0.25-1.14c0.09-0.43,0.34-0.73,0.75-0.92c5.91-2.57,9.79-6.86,11.65-12.88
				c0.04-0.11,0.03-0.21-0.03-0.28c-0.06-0.07-0.14-0.11-0.25-0.11h-7.3c-0.44,0-0.82-0.16-1.11-0.47c-0.3-0.32-0.44-0.7-0.44-1.14
				s0.15-0.83,0.44-1.14c0.3-0.31,0.67-0.47,1.11-0.47h8.08c0.3,0,0.46-0.13,0.5-0.39c0.22-1.04,0.41-2.19,0.56-3.46
				c0.03-0.52,0.26-0.96,0.67-1.34c0.41-0.37,0.88-0.56,1.39-0.56c0.52,0,0.95,0.19,1.28,0.56c0.34,0.37,0.48,0.82,0.44,1.34
				C216.78,332.39,216.62,333.54,216.47,334.54z M222.27,312.8c0.04-0.11,0.03-0.21-0.03-0.28c-0.06-0.07-0.12-0.11-0.19-0.11
				h-11.71c-0.07,0-0.14,0.04-0.19,0.11c-0.06,0.07-0.07,0.15-0.03,0.22c1.53,2.64,3.59,5.02,6.19,7.13c0.22,0.19,0.43,0.19,0.61,0
				C219.18,317.87,220.96,315.51,222.27,312.8z"/>
			<path class="st0" d="M38.54,246.37v4.18c0,0.52,0.19,0.96,0.56,1.31c0.37,0.36,0.82,0.53,1.33,0.53s0.97-0.18,1.34-0.53
				c0.37-0.35,0.56-0.79,0.56-1.31v-4.18c0-0.26,0.13-0.39,0.39-0.39h11.43c0.48,0,0.9-0.18,1.25-0.53
				c0.36-0.35,0.53-0.79,0.53-1.31s-0.18-0.96-0.53-1.31c-0.35-0.36-0.77-0.53-1.25-0.53H42.72c-0.26,0-0.39-0.13-0.39-0.39v-3.01
				c0-0.52-0.19-0.97-0.56-1.34c-0.37-0.37-0.82-0.56-1.34-0.56s-0.96,0.18-1.33,0.56c-0.37,0.37-0.56,0.82-0.56,1.34v3.01
				c0,0.26-0.13,0.39-0.39,0.39H24.16c-0.26,0-0.39-0.13-0.39-0.39v-3.01c0-0.52-0.18-0.97-0.56-1.34
				c-0.37-0.37-0.82-0.56-1.33-0.56c-0.52,0-0.97,0.18-1.34,0.56c-0.37,0.37-0.56,0.82-0.56,1.34v3.01c0,0.26-0.13,0.39-0.39,0.39
				H7.99c-0.48,0-0.9,0.18-1.25,0.53c-0.36,0.35-0.53,0.79-0.53,1.31s0.18,0.96,0.53,1.31c0.35,0.36,0.77,0.53,1.25,0.53h11.6
				c0.26,0,0.39,0.13,0.39,0.39v3.79c0,0.52,0.18,0.97,0.56,1.34c0.37,0.37,0.82,0.56,1.34,0.56c0.52,0,0.96-0.18,1.33-0.56
				c0.37-0.37,0.56-0.82,0.56-1.34v-3.79c0-0.26,0.13-0.39,0.39-0.39h13.99C38.41,245.98,38.54,246.11,38.54,246.37z"/>
			<path class="st0" d="M21.82,255.72c-0.56-0.19-1.09-0.17-1.59,0.06c-0.5,0.22-0.9,0.58-1.2,1.06c-1.63,3.05-3.59,5.96-5.85,8.72
				c-2.27,2.77-4.67,5.18-7.19,7.22c-0.37,0.34-0.56,0.75-0.56,1.26c0,0.5,0.19,0.92,0.56,1.25c0.48,0.37,1.01,0.57,1.56,0.59
				c0.56,0.02,1.06-0.16,1.5-0.53c1.93-1.75,3.85-3.72,5.74-5.91c0.07-0.07,0.14-0.09,0.19-0.06c0.06,0.04,0.09,0.09,0.09,0.16
				v16.74c0,0.48,0.18,0.91,0.56,1.28c0.37,0.37,0.81,0.56,1.31,0.56c0.5,0,0.94-0.19,1.31-0.56c0.37-0.37,0.56-0.8,0.56-1.28
				v-21.54c0-0.3,0.07-0.56,0.22-0.78c1.38-1.93,2.62-3.92,3.74-5.97c0.22-0.44,0.24-0.9,0.06-1.36
				C22.63,256.17,22.3,255.87,21.82,255.72z"/>
			<path class="st0" d="M52.76,261.65c0.45-0.26,0.7-0.65,0.76-1.17c0.05-0.52-0.1-0.96-0.47-1.33c-0.41-0.41-0.9-0.63-1.48-0.67
				c-0.58-0.04-1.11,0.11-1.59,0.44c-3.33,2.25-7.54,4.52-12.54,6.81v3.55C44,266.43,49.15,263.88,52.76,261.65z"/>
			<path class="st0" d="M56.38,277.76c-0.33-0.48-0.76-0.83-1.28-1.06c-0.41-0.19-0.81-0.18-1.2,0.03c-0.39,0.2-0.59,0.51-0.59,0.92
				c-0.18,2.86-0.49,4.74-0.92,5.63c-0.43,0.89-1.27,1.34-2.54,1.34H39.04c-1.49,0-2.45-0.18-2.9-0.56
				c-0.44-0.37-0.67-1.13-0.67-2.28v-7.52v-3.74v-4.29v-6.02v-1.91c0-0.52-0.18-0.96-0.56-1.34c-0.37-0.37-0.81-0.56-1.31-0.56
				s-0.94,0.19-1.31,0.56c-0.37,0.37-0.56,0.82-0.56,1.34v23.43c0,2.53,0.49,4.23,1.45,5.1s2.82,1.31,5.58,1.31h11.26
				c2.34,0,3.97-0.61,4.91-1.84c1.23-1.67,1.84-4.09,1.84-7.25C56.77,278.56,56.64,278.13,56.38,277.76z"/>
			<g>
				<path class="st0" d="M138.44,305.16h-9.7c-0.93,0-1.71,0.32-2.34,0.95c-0.63,0.63-0.95,1.41-0.95,2.34v17.06
					c0,5.28-0.22,10.08-0.67,14.41c-0.45,4.33-1.39,8.26-2.85,11.79c-0.07,0.22-0.11,0.45-0.11,0.67c0,0.22,0.04,0.45,0.11,0.67
					c0.19,0.45,0.48,0.8,0.89,1.06c0.41,0.22,0.83,0.28,1.28,0.19c0.44-0.09,0.76-0.36,0.95-0.81c1.75-4.24,2.9-10,3.46-17.28
					c0.03-0.2,0.28-4.28,0.28-4.4c0.07-2.86,0.11-4.96,0.11-6.3v-3.01v-4.35v-1.72v-7.25c0-0.3,0.15-0.45,0.44-0.45h8.36
					c0.26,0,0.39,0.15,0.39,0.45v8.97c0,0.26-0.13,0.39-0.39,0.39h-6.85v3.57h6.85c0.26,0,0.39,0.13,0.39,0.39v9.31
					c0,0.26-0.13,0.39-0.39,0.39h-6.85v3.62h6.85c0.26,0,0.39,0.13,0.39,0.39v14.16c0,0.41-0.07,0.7-0.22,0.86
					c-0.15,0.16-0.43,0.25-0.83,0.25c-2.6,0-3.92,0-3.96,0c-0.44,0-0.8,0.18-1.06,0.56c-0.26,0.37-0.32,0.76-0.17,1.17
					c0.15,0.56,0.44,1.01,0.86,1.36c0.43,0.36,0.92,0.53,1.48,0.53c2.79-0.04,4.66-0.26,5.63-0.67c0.67-0.37,1.15-0.86,1.45-1.48
					c0.3-0.61,0.44-1.46,0.44-2.54v-41.98c0-0.93-0.33-1.71-0.98-2.34C140.11,305.48,139.34,305.16,138.44,305.16z"/>
				<path class="st0" d="M172.4,351.32c-2.75-1.63-5.35-3.81-7.8-6.52c-0.19-0.22-0.21-0.45-0.06-0.67
					c3.57-5.06,6.1-10.96,7.58-17.73c0.07-0.34,0.03-0.65-0.14-0.95c-0.16-0.3-0.42-0.5-0.75-0.61l-0.56-0.22
					c-0.34-0.11-0.69-0.13-1.06-0.06c-0.07,0-0.13,0-0.17,0h-18.4c-0.3,0-0.44-0.15-0.44-0.45v-14.77c0-0.3,0.15-0.44,0.44-0.44
					h15.66c0.26,0,0.39,0.15,0.39,0.44v6.97c0,0.34-0.07,0.57-0.22,0.7c-0.15,0.13-0.44,0.22-0.89,0.25
					c-0.45,0.04-1.1,0.05-1.95,0.05c-0.97,0-2.18-0.01-3.62-0.05c-0.41,0-0.73,0.16-0.95,0.5c-0.22,0.33-0.26,0.69-0.11,1.06
					c0.45,1.11,1.21,1.67,2.29,1.67c3.57,0,5.91-0.18,7.02-0.56c0.82-0.26,1.38-0.66,1.67-1.2c0.3-0.54,0.45-1.33,0.45-2.37v-7.7
					c0-0.93-0.33-1.71-0.98-2.34c-0.65-0.63-1.42-0.95-2.31-0.95h-17.17c-0.93,0-1.71,0.31-2.34,0.95
					c-0.63,0.63-0.95,1.41-0.95,2.34v44.66c0,0.48,0.18,0.9,0.53,1.25c0.35,0.36,0.77,0.53,1.25,0.53c0.49,0,0.9-0.18,1.26-0.53
					c0.35-0.35,0.53-0.77,0.53-1.25v-24.87c0-0.3,0.15-0.44,0.44-0.44h0.78c0.3,0,0.48,0.15,0.56,0.44
					c1.97,6.1,4.44,11.28,7.42,15.56c0.15,0.22,0.13,0.44-0.06,0.67c-2.23,2.6-4.63,4.7-7.19,6.3c-0.37,0.26-0.58,0.61-0.64,1.06
					c-0.06,0.45,0.04,0.84,0.31,1.17c0.33,0.41,0.73,0.67,1.2,0.78c0.47,0.11,0.92,0.04,1.37-0.22c2.57-1.75,4.92-3.83,7.08-6.24
					c0.19-0.18,0.37-0.18,0.56,0c2.45,2.83,4.98,5.06,7.58,6.69c0.44,0.26,0.93,0.34,1.45,0.22c0.52-0.11,0.95-0.39,1.28-0.84
					c0.26-0.3,0.39-0.63,0.39-1C173.12,352.05,172.88,351.62,172.4,351.32z M162.36,341.23c-0.04,0.07-0.11,0.11-0.22,0.11
					s-0.19-0.03-0.22-0.11c-2.64-3.87-4.7-8.12-6.19-12.77c-0.04-0.11-0.03-0.21,0.03-0.31c0.06-0.09,0.14-0.14,0.25-0.14h11.82
					c0.11,0,0.19,0.05,0.25,0.14c0.06,0.09,0.08,0.19,0.08,0.31C166.86,333.08,164.93,337.33,162.36,341.23z"/>
			</g>
			<path class="st0" d="M265.82,341.63v-21.2h0.02v-9.25c0-0.3,0.13-0.44,0.39-0.44h18.17c0.52,0,0.96-0.19,1.31-0.56
				c0.35-0.37,0.53-0.82,0.53-1.34c0-0.52-0.18-0.96-0.53-1.31c-0.36-0.36-0.79-0.53-1.31-0.53h-40.92c-0.52,0-0.96,0.18-1.31,0.53
				c-0.36,0.35-0.53,0.79-0.53,1.31c0,0.52,0.18,0.97,0.53,1.34c0.35,0.37,0.79,0.56,1.31,0.56h18.06c0.26,0,0.39,0.15,0.39,0.44
				v19.46c0,0.3-0.13,0.45-0.39,0.45h-21.02c-0.52,0-0.97,0.19-1.34,0.56c-0.37,0.37-0.56,0.82-0.56,1.34s0.18,0.96,0.56,1.31
				c0.37,0.36,0.82,0.53,1.34,0.53h21.02c0.26,0,0.39,0.15,0.39,0.45v17.84c0,0.52,0.19,0.98,0.58,1.36
				c0.39,0.39,0.85,0.59,1.37,0.59c0.52,0,0.98-0.19,1.36-0.59c0.39-0.39,0.59-0.85,0.59-1.36v-11.48H265.82z"/>
			<path class="st0" d="M288.92,331.64c-0.37-0.37-0.82-0.56-1.34-0.56h-19.8v3.74h19.8c0.52,0,0.97-0.18,1.34-0.53
				c0.37-0.35,0.56-0.79,0.56-1.31S289.29,332.02,288.92,331.64z"/>
			<g>
				<path class="st0" d="M336.89,331.03h-29.33c-0.89,0-1.66,0.32-2.31,0.95c-0.65,0.63-0.98,1.41-0.98,2.34v18.79
					c0,0.56,0.19,1.02,0.58,1.39c0.39,0.37,0.85,0.56,1.37,0.56c0.52,0,0.96-0.19,1.33-0.56c0.37-0.37,0.56-0.84,0.56-1.39v-0.33
					v-4.29v-3.74v-9.65c0-0.3,0.15-0.44,0.45-0.44h27.21c0.3,0,0.44,0.15,0.44,0.44v13.38c0,0.26-0.15,0.39-0.44,0.39h-25.7v3.62
					h25.86c0.19,0,0.28,0.09,0.28,0.28v0.11c0,0.56,0.19,1.03,0.58,1.42c0.39,0.39,0.86,0.58,1.39,0.58c0.54,0,1-0.19,1.39-0.58
					c0.39-0.39,0.58-0.86,0.58-1.42v-18.57c0-0.93-0.33-1.71-0.98-2.34C338.55,331.35,337.78,331.03,336.89,331.03z"/>
				<path class="st0" d="M346.64,324.01c-1.45-2.01-3.35-4.19-5.69-6.55c-2.34-2.36-4.74-4.54-7.19-6.55
					c-0.44-0.34-0.93-0.51-1.45-0.53c-0.52-0.02-1,0.14-1.45,0.47c-0.37,0.26-0.57,0.61-0.59,1.06c-0.02,0.45,0.16,0.82,0.53,1.11
					c1.97,1.75,4.01,3.68,6.13,5.8c0.07,0.07,0.09,0.15,0.06,0.22c-0.04,0.07-0.09,0.11-0.17,0.11c-9.07,0.45-17.71,0.82-25.92,1.12
					c-0.11,0-0.19-0.04-0.22-0.11c-0.04-0.07-0.04-0.15,0-0.22c2.64-3.86,5.37-8.42,8.2-13.66c0.26-0.52,0.29-1.04,0.08-1.56
					c-0.2-0.52-0.58-0.88-1.14-1.06c-0.26-0.11-0.52-0.17-0.78-0.17c-0.3,0-0.61,0.07-0.95,0.22c-0.56,0.22-0.97,0.61-1.23,1.17
					c-2.57,5.54-5.45,10.61-8.64,15.22c-0.15,0.22-0.36,0.35-0.61,0.39c-3.31,0.11-5.37,0.17-6.19,0.17
					c-0.52,0.04-0.95,0.24-1.28,0.61c-0.34,0.37-0.5,0.78-0.5,1.23c0,0.59,0.22,1.1,0.67,1.51c0.41,0.33,0.88,0.5,1.39,0.5
					c20.59-0.89,34.01-1.51,40.25-1.84c0.3-0.04,0.54,0.06,0.73,0.28c1,1.19,1.93,2.38,2.79,3.57c0.33,0.45,0.76,0.73,1.28,0.84
					c0.11,0,0.22,0,0.33,0c0.41,0,0.78-0.13,1.12-0.39c0.44-0.37,0.72-0.84,0.83-1.39c0-0.11,0-0.22,0-0.33
					C347.03,324.79,346.9,324.38,346.64,324.01z"/>
			</g>
			<path class="st0" d="M112.77,275.97H97.89c-0.3,0-0.45-0.13-0.45-0.39v-2.62c0-0.26,0.15-0.39,0.45-0.39h9.7
				c0.93,0,1.71-0.33,2.34-0.98c0.63-0.65,0.95-1.42,0.95-2.31v-8.92c0-0.89-0.31-1.66-0.95-2.31c-0.63-0.65-1.41-0.98-2.34-0.98
				h-9.7c-0.3,0-0.45-0.13-0.45-0.39v-2.57c0-0.26,0.15-0.39,0.45-0.39h13.82c0.37,0,0.7-0.14,0.98-0.42
				c0.28-0.28,0.42-0.61,0.42-1.01c0-0.39-0.14-0.71-0.42-0.98c-0.28-0.26-0.61-0.39-0.98-0.39H97.89c-0.3,0-0.45-0.15-0.45-0.44
				v-1.51c0-0.26,0.13-0.39,0.39-0.39c0.82,0,1.51-0.29,2.09-0.86c0.58-0.58,0.86-1.28,0.86-2.09v-1.06c0-0.26,0.13-0.39,0.39-0.39
				h11.6c0.45,0,0.84-0.16,1.17-0.47c0.34-0.31,0.5-0.7,0.5-1.14c0-0.45-0.17-0.83-0.5-1.14c-0.33-0.31-0.72-0.47-1.17-0.47h-11.6
				c-0.26,0-0.39-0.15-0.39-0.44v-1.56c0-0.52-0.19-0.96-0.56-1.33c-0.37-0.37-0.82-0.56-1.34-0.56c-0.52,0-0.97,0.18-1.34,0.56
				c-0.37,0.37-0.56,0.82-0.56,1.33v1.56c0,0.3-0.13,0.44-0.39,0.44H81.77c-0.26,0-0.39-0.15-0.39-0.44v-1.56
				c0-0.52-0.18-0.96-0.56-1.33c-0.37-0.37-0.82-0.56-1.33-0.56c-0.52,0-0.97,0.18-1.34,0.56c-0.37,0.37-0.56,0.82-0.56,1.33v1.56
				c0,0.3-0.13,0.44-0.39,0.44H65.89c-0.45,0-0.84,0.16-1.17,0.47c-0.34,0.31-0.5,0.7-0.5,1.14c0,0.44,0.17,0.83,0.5,1.14
				c0.33,0.32,0.72,0.47,1.17,0.47H77.2c0.26,0,0.39,0.13,0.39,0.39v2.18c0,0.52,0.18,0.96,0.56,1.34c0.37,0.37,0.82,0.56,1.34,0.56
				c0.52,0,0.96-0.19,1.33-0.56c0.37-0.37,0.56-0.82,0.56-1.34v-2.18c0-0.26,0.13-0.39,0.39-0.39H96.6c0.26,0,0.39,0.13,0.39,0.39
				v2.45c0,0.22-0.11,0.34-0.33,0.34c-0.74,0-1.39,0.27-1.93,0.81s-0.81,1.18-0.81,1.92v0.45c0,0.26-0.13,0.39-0.39,0.39H80.32
				c-0.41,0-0.74,0.13-1,0.39c-0.26,0.26-0.39,0.59-0.39,0.98c0,0.39,0.13,0.73,0.39,1.01c0.26,0.28,0.59,0.42,1,0.42h13.16
				c0.3,0,0.44,0.13,0.44,0.39v2.57c0,0.26-0.15,0.39-0.44,0.39h-9.31c-0.89,0-1.66,0.33-2.31,0.98c-0.65,0.65-0.98,1.42-0.98,2.31
				v8.92c0,0.89,0.33,1.66,0.98,2.31c0.65,0.65,1.42,0.98,2.31,0.98h9.31c0.3,0,0.44,0.13,0.44,0.39v2.62
				c0,0.26-0.15,0.39-0.44,0.39H79.15c-0.41,0-0.76,0.15-1.06,0.45c-0.3,0.3-0.44,0.65-0.44,1.06s0.15,0.76,0.44,1.06
				c0.3,0.3,0.65,0.44,1.06,0.44h14.33c0.3,0,0.44,0.13,0.44,0.39v2.23c0,0.48,0.18,0.89,0.53,1.23c0.35,0.34,0.77,0.5,1.25,0.5
				s0.89-0.16,1.23-0.5c0.34-0.33,0.5-0.74,0.5-1.23v-2.23c0-0.26,0.15-0.39,0.45-0.39h14.88c0.41,0,0.76-0.15,1.03-0.44
				c0.28-0.3,0.42-0.65,0.42-1.06s-0.14-0.76-0.42-1.06C113.52,276.12,113.18,275.97,112.77,275.97z M97.44,268.57v-2.07v-3.4V261
				v-0.86c0-0.3,0.15-0.44,0.45-0.44h9.03c0.3,0,0.44,0.15,0.44,0.44v2.95c0,0.26-0.15,0.39-0.44,0.39h-7.52v2.56h7.52
				c0.3,0,0.44,0.15,0.44,0.45v3.01c0,0.3-0.15,0.45-0.44,0.45h-9.03c-0.3,0-0.45-0.15-0.45-0.45V268.57z M93.93,269.51
				c0,0.3-0.15,0.45-0.44,0.45h-8.64c-0.26,0-0.39-0.15-0.39-0.45v-3.01c0-0.3,0.13-0.45,0.39-0.45h8.64c0.3,0,0.44,0.15,0.44,0.45
				V269.51z M93.93,263.09c0,0.26-0.15,0.39-0.44,0.39h-8.64c-0.26,0-0.39-0.13-0.39-0.39v-2.95c0-0.3,0.13-0.44,0.39-0.44h8.64
				c0.3,0,0.44,0.15,0.44,0.44V263.09z"/>
			<g>
				<path class="st0" d="M137.12,246.48h3.78c0.48,0,0.88-0.16,1.2-0.47c0.31-0.31,0.47-0.7,0.47-1.17c0-0.46-0.16-0.85-0.47-1.17
					c-0.32-0.31-0.72-0.47-1.2-0.47h-3.78V246.48z"/>
				<path class="st0" d="M169.83,251.55c0.04-0.26,0.21-0.39,0.5-0.39h1.45c0.48,0,0.9-0.18,1.26-0.53
					c0.35-0.35,0.53-0.77,0.53-1.26c0-0.48-0.18-0.9-0.53-1.25c-0.36-0.35-0.77-0.53-1.26-0.53h-14.77c-0.07,0-0.15-0.03-0.22-0.11
					c-0.08-0.07-0.09-0.17-0.06-0.28c0.7-2.53,1.32-5.09,1.84-7.69c0.11-0.52,0.02-0.99-0.28-1.42c-0.3-0.43-0.73-0.68-1.28-0.75
					c-0.52-0.07-0.99,0.05-1.42,0.36c-0.43,0.32-0.7,0.73-0.81,1.25c-1.9,9.7-4.69,17.14-8.36,22.3c-0.11,0.15-0.24,0.17-0.39,0.06
					l-1.23-0.89c-0.37-0.26-0.78-0.34-1.23-0.22c-0.07,0.04-0.13,0.06-0.17,0.06h-6.19c-0.07,0-0.13-0.04-0.16-0.11
					c-0.04-0.07-0.02-0.15,0.06-0.22c1.08-1.11,2.17-2.4,3.29-3.84c0.19-0.22,0.43-0.34,0.73-0.34h6.24c0.48,0,0.89-0.17,1.23-0.5
					c0.33-0.33,0.5-0.73,0.5-1.2c0-0.46-0.17-0.86-0.5-1.2c-0.34-0.34-0.74-0.5-1.23-0.5h-3.74c-0.11,0-0.19-0.04-0.22-0.11
					c-0.04-0.07-0.04-0.15,0-0.22c2.3-3.42,4.31-7.08,6.02-10.98c0.22-0.44,0.22-0.89,0-1.34c-0.22-0.44-0.58-0.73-1.06-0.83
					c-0.48-0.15-0.96-0.11-1.42,0.11c-0.46,0.22-0.81,0.58-1.03,1.06c-1.9,4.39-4.18,8.38-6.86,11.98
					c-0.19,0.22-0.41,0.34-0.67,0.34h-2.84c-0.26,0-0.39-0.13-0.39-0.39v-5.07c0,0,0,0,0,0v-4.12c0,0,0,0,0,0v-4.01
					c0-0.48-0.18-0.89-0.53-1.23c-0.36-0.34-0.76-0.5-1.23-0.5s-0.88,0.16-1.23,0.5c-0.36,0.33-0.53,0.74-0.53,1.23v4.01
					c0,0.3-0.13,0.45-0.39,0.45h-5.69c-0.48,0-0.88,0.16-1.2,0.47c-0.32,0.32-0.47,0.71-0.47,1.17c0,0.47,0.16,0.86,0.47,1.17
					c0.31,0.32,0.71,0.47,1.2,0.47h5.69c0.26,0,0.39,0.13,0.39,0.39v5.07c0,0.26-0.13,0.39-0.39,0.39h-7.97
					c-0.44,0-0.84,0.16-1.17,0.5c-0.34,0.33-0.5,0.73-0.5,1.2c0,0.47,0.16,0.87,0.5,1.2c0.33,0.33,0.73,0.5,1.17,0.5h12.38
					c0.07,0,0.13,0.04,0.17,0.11c0.03,0.07,0.02,0.13-0.06,0.17c-1.23,1.38-2.53,2.69-3.9,3.96c-0.22,0.19-0.46,0.28-0.73,0.28h-3.4
					c-0.45,0-0.82,0.15-1.11,0.44c-0.3,0.3-0.45,0.65-0.45,1.06v0.17c0,0.37,0.14,0.7,0.42,0.98c0.28,0.28,0.61,0.42,0.98,0.42
					c0.04,0,0.06,0.01,0.08,0.03c0.02,0.02,0.01,0.05-0.03,0.09c-1.71,1.26-3.53,2.45-5.46,3.57c-0.48,0.26-0.73,0.69-0.73,1.28
					c0,0.41,0.15,0.76,0.44,1.06c0.41,0.41,0.89,0.67,1.45,0.78c0.56,0.11,1.1,0.02,1.62-0.28c2.97-1.86,5.76-3.94,8.36-6.24
					c0.18-0.18,0.43-0.28,0.73-0.28h6.24c0.07,0,0.12,0.04,0.14,0.11c0.02,0.07,0.01,0.15-0.03,0.22c-1.45,1.49-2.95,2.83-4.51,4.02
					c-0.11,0.07-0.24,0.11-0.39,0.11c-0.44,0-0.83,0.16-1.17,0.47c-0.33,0.32-0.5,0.72-0.5,1.2v3.12c0,0.26-0.13,0.41-0.39,0.44
					c-3.76,0.41-7.19,0.76-10.32,1.06c-0.48,0.07-0.87,0.3-1.17,0.67c-0.3,0.37-0.41,0.78-0.33,1.23c0.07,0.49,0.3,0.88,0.67,1.17
					c0.37,0.3,0.8,0.43,1.28,0.39c2.94-0.3,6.22-0.67,9.87-1.11c0.26-0.04,0.39,0.09,0.39,0.39v8.03c0,0.3-0.07,0.5-0.19,0.61
					c-0.13,0.11-0.38,0.17-0.76,0.17c-0.37,0.03-1.1,0.05-2.17,0.05c-0.59,0-1.34,0-2.23,0c-0.37,0-0.67,0.17-0.89,0.5
					c-0.22,0.33-0.26,0.68-0.11,1.06c0.19,0.52,0.48,0.94,0.89,1.25c0.41,0.32,0.85,0.47,1.34,0.47c2.86,0,4.79-0.17,5.8-0.5
					c0.74-0.34,1.26-0.77,1.53-1.31c0.28-0.54,0.42-1.31,0.42-2.31v-8.47c0-0.3,0.13-0.47,0.39-0.5l9.87-1.11
					c0.45-0.04,0.83-0.23,1.14-0.58c0.31-0.36,0.47-0.76,0.47-1.2s-0.17-0.82-0.5-1.11c-0.33-0.3-0.7-0.41-1.11-0.34l-9.87,1.06
					c-0.26,0.04-0.39-0.09-0.39-0.39v-1.78c0-0.26,0.11-0.48,0.33-0.67c3.08-2.23,5.74-4.66,7.97-7.3c0.15-0.22,0.36-0.24,0.61-0.06
					c0.04,0,0.07,0.02,0.11,0.06c0.56,0.45,1.19,0.67,1.9,0.67c0.15,0,0.3-0.02,0.44-0.06c0.86-0.11,1.51-0.52,1.95-1.23
					c0.74-1.26,1.45-2.62,2.12-4.07c0.04-0.04,0.09-0.06,0.17-0.06c0.07,0,0.11,0.04,0.11,0.11c1.34,6.13,3.01,11.41,5.02,15.83
					c0.15,0.26,0.13,0.5-0.06,0.73c-2.9,4.39-6.78,7.9-11.65,10.54c-0.48,0.22-0.78,0.59-0.89,1.11s-0.02,0.98,0.28,1.39
					c0.34,0.48,0.77,0.81,1.31,0.98c0.54,0.16,1.05,0.1,1.53-0.2c4.64-2.67,8.47-6.02,11.48-10.03c0.15-0.22,0.3-0.21,0.44,0.06
					c2.45,4.05,5.41,7.28,8.87,9.7c0.48,0.33,1.01,0.44,1.59,0.31c0.58-0.13,1.05-0.42,1.42-0.86c0.37-0.41,0.52-0.88,0.44-1.39
					c-0.07-0.52-0.33-0.93-0.78-1.23c-3.53-2.27-6.61-5.65-9.25-10.14c-0.15-0.22-0.15-0.47,0-0.73
					C166.08,268.21,168.38,260.77,169.83,251.55z M160.86,269.67c-0.04,0.08-0.1,0.11-0.19,0.11c-0.09,0-0.14-0.03-0.14-0.11
					c-2.23-5.16-3.92-11.22-5.07-18.17c-0.04-0.07-0.05-0.15-0.03-0.22c0.02-0.07,0.06-0.11,0.14-0.11h9.98
					c0.3,0,0.43,0.13,0.39,0.39C164.81,258.84,163.12,264.88,160.86,269.67z"/>
			</g>
			<path class="st0" d="M286.69,251.5c0.03-0.22,0.16-0.33,0.39-0.33h1.17c0.48,0,0.9-0.18,1.26-0.53c0.35-0.35,0.53-0.78,0.53-1.28
				c0-0.5-0.18-0.93-0.53-1.28c-0.36-0.35-0.77-0.53-1.26-0.53h-12.99c-0.26,0-0.37-0.13-0.33-0.39c0.56-2.45,1.06-5.04,1.5-7.75
				c0.07-0.52-0.04-0.99-0.33-1.39c-0.3-0.41-0.7-0.64-1.2-0.7c-0.5-0.06-0.96,0.06-1.36,0.36c-0.41,0.3-0.65,0.7-0.73,1.23
				c-1.52,9.7-3.75,17.17-6.69,22.41c-0.04,0.04-0.07,0.05-0.11,0.03c-0.04-0.02-0.06-0.05-0.06-0.09c0-0.74-0.26-1.37-0.78-1.9
				c-0.52-0.52-1.16-0.78-1.9-0.78h-8.2c-0.3,0-0.44-0.13-0.44-0.39v-2.01c0-0.26,0.15-0.39,0.44-0.39h6.19
				c0.93,0,1.71-0.33,2.34-0.98c0.63-0.65,0.95-1.42,0.95-2.31v-2.45c0-0.3,0.15-0.44,0.44-0.44h2.17c0.41,0,0.76-0.14,1.03-0.42
				c0.28-0.28,0.42-0.62,0.42-1.03c0-0.41-0.14-0.75-0.42-1.03c-0.28-0.28-0.62-0.42-1.03-0.42H265c-0.3,0-0.44-0.13-0.44-0.39v-2.4
				c0-0.89-0.32-1.66-0.95-2.31c-0.63-0.65-1.41-0.98-2.34-0.98h-6.24c-0.26,0-0.39-0.13-0.39-0.39v-1.56c0-0.48-0.16-0.88-0.47-1.2
				c-0.31-0.31-0.71-0.47-1.17-0.47c-0.46,0-0.86,0.16-1.17,0.47c-0.32,0.32-0.47,0.72-0.47,1.2v1.56c0,0.26-0.15,0.39-0.44,0.39
				h-5.63c-0.93,0-1.71,0.33-2.34,0.98c-0.63,0.65-0.95,1.42-0.95,2.31v2.4c0,0.26-0.15,0.39-0.44,0.39h-2.12
				c-0.41,0-0.76,0.14-1.03,0.42c-0.28,0.28-0.42,0.62-0.42,1.03c0,0.41,0.14,0.76,0.42,1.03c0.28,0.28,0.62,0.42,1.03,0.42h2.12
				c0.3,0,0.44,0.15,0.44,0.44v2.45c0,0.89,0.32,1.66,0.95,2.31c0.63,0.65,1.41,0.98,2.34,0.98h5.63c0.3,0,0.44,0.13,0.44,0.39v2.01
				c0,0.26-0.15,0.39-0.44,0.39h-7.14c-0.89,0-1.66,0.33-2.31,0.97c-0.65,0.65-0.98,1.42-0.98,2.31v2.68c0,0.89,0.33,1.66,0.98,2.31
				c0.65,0.65,1.42,0.97,2.31,0.97h4.8c0.11,0,0.18,0.04,0.22,0.11c0.04,0.07,0.04,0.17,0,0.28c-0.37,0.67-0.91,1.69-1.62,3.07
				c-0.11,0.26-0.32,0.39-0.61,0.39c-1.97,0-4.29,0.02-6.97,0.06c-0.44,0-0.81,0.15-1.08,0.44c-0.28,0.3-0.41,0.66-0.39,1.09
				c0.02,0.43,0.18,0.79,0.47,1.09c0.3,0.3,0.67,0.43,1.11,0.39l5.24-0.06c0.07,0,0.14,0.04,0.19,0.11
				c0.06,0.07,0.06,0.15,0.03,0.22c-0.93,1.63-1.8,3.12-2.62,4.46c-0.18,0.33-0.21,0.7-0.08,1.08c0.13,0.39,0.4,0.64,0.81,0.76
				c0.45,0.15,0.9,0.14,1.37-0.03c0.46-0.17,0.81-0.46,1.03-0.86l0.11-0.17c0.07-0.15,0.19-0.18,0.34-0.11
				c1.71,0.64,3.59,1.41,5.63,2.34c0.07,0.04,0.11,0.1,0.11,0.19s-0.04,0.16-0.11,0.19c-2.68,1.38-6.23,2.4-10.65,3.07
				c-0.37,0.07-0.64,0.29-0.81,0.64c-0.17,0.36-0.18,0.72-0.03,1.09c0.22,0.44,0.56,0.78,1.01,1.01c0.3,0.18,0.59,0.28,0.89,0.28
				c0.15,0,0.28-0.02,0.39-0.06c5.28-1.04,9.48-2.51,12.6-4.4c0.26-0.15,0.5-0.16,0.73-0.06c1.67,0.89,3.2,1.76,4.57,2.62
				c0.45,0.3,0.92,0.42,1.42,0.36c0.5-0.06,0.92-0.25,1.25-0.58c0.33-0.3,0.47-0.67,0.42-1.12c-0.06-0.44-0.27-0.78-0.64-1
				c-1.23-0.78-2.67-1.58-4.35-2.4c-0.22-0.11-0.24-0.26-0.05-0.44c1.93-1.93,3.32-4.29,4.18-7.08c0.11-0.26,0.3-0.39,0.56-0.39
				l4.18-0.11c0.41,0,0.76-0.14,1.06-0.42c0.3-0.28,0.46-0.64,0.5-1.09c0-0.37-0.13-0.7-0.39-0.98c-0.26-0.28-0.59-0.42-1-0.42
				c-7.21,0.11-12.71,0.19-16.5,0.22c-0.11,0-0.19-0.03-0.22-0.11c-0.04-0.07-0.04-0.15,0-0.22c0.59-1.08,1.13-2.1,1.62-3.07
				c0.11-0.26,0.32-0.39,0.61-0.39h9.59c0.89,0,1.66-0.32,2.31-0.97c0.65-0.65,0.98-1.42,0.98-2.31v-1.23
				c0-0.07,0.03-0.12,0.09-0.14c0.06-0.02,0.12-0.01,0.19,0.03c0.44,0.37,0.95,0.56,1.5,0.56c0.15,0,0.28-0.02,0.39-0.06
				c0.71-0.07,1.23-0.43,1.56-1.06c0.63-1.26,1.21-2.57,1.73-3.9c0.03-0.07,0.08-0.1,0.14-0.08c0.06,0.02,0.1,0.04,0.14,0.08
				c1.15,5.99,2.62,11.08,4.4,15.28c0.11,0.26,0.09,0.5-0.06,0.73c-2.45,4.2-5.59,7.6-9.42,10.2c-0.44,0.3-0.71,0.7-0.78,1.2
				c-0.07,0.5,0.03,0.96,0.33,1.36c0.3,0.45,0.7,0.72,1.2,0.81c0.5,0.09,0.97-0.01,1.42-0.31c3.6-2.6,6.63-5.74,9.09-9.42
				c0.04-0.11,0.1-0.16,0.19-0.14c0.09,0.02,0.18,0.06,0.25,0.14c2.2,3.9,4.78,7,7.75,9.31c0.44,0.33,0.93,0.45,1.45,0.36
				c0.52-0.09,0.97-0.36,1.34-0.81c0.34-0.37,0.47-0.81,0.42-1.31s-0.29-0.9-0.7-1.2c-3.16-2.38-5.87-5.76-8.14-10.15
				c-0.11-0.22-0.11-0.46,0-0.73C283.23,268.43,285.31,260.9,286.69,251.5z M254.63,252.15v-2.21v-3.51v-2.08v-0.54
				c0-0.26,0.15-0.39,0.44-0.39h5.69c0.3,0,0.44,0.13,0.44,0.39v2.62c0,0.26-0.15,0.39-0.44,0.39h-4.18v2.67h4.18
				c0.3,0,0.44,0.15,0.44,0.45v2.67c0,0.3-0.15,0.45-0.44,0.45h-5.69c-0.3,0-0.44-0.15-0.44-0.45V252.15z M258.87,274.47
				c0.07,0,0.14,0.04,0.19,0.11c0.06,0.07,0.06,0.16,0.03,0.28c-0.86,2.2-2.1,4.03-3.74,5.52c-0.22,0.19-0.47,0.22-0.73,0.11
				c-2.64-1.11-4.94-2.03-6.91-2.73c-0.26-0.11-0.32-0.28-0.17-0.5c0.52-0.93,0.93-1.69,1.23-2.28c0.15-0.22,0.36-0.34,0.61-0.34
				L258.87,274.47z M251.34,264.76c0,0.3-0.15,0.45-0.44,0.45h-6.75c-0.3,0-0.44-0.15-0.44-0.45v-3.12c0-0.3,0.15-0.45,0.44-0.45
				h6.75c0.3,0,0.44,0.15,0.44,0.45V264.76z M251.34,252.61c0,0.3-0.15,0.45-0.44,0.45h-5.24c-0.3,0-0.44-0.15-0.44-0.45v-2.67
				c0-0.3,0.15-0.45,0.44-0.45h5.24c0.3,0,0.44,0.15,0.44,0.45V252.61z M251.34,246.42c0,0.26-0.15,0.39-0.44,0.39h-5.24
				c-0.3,0-0.44-0.13-0.44-0.39v-2.62c0-0.26,0.15-0.39,0.44-0.39h5.24c0.3,0,0.44,0.13,0.44,0.39V246.42z M262.55,264.76
				c0,0.3-0.13,0.45-0.39,0.45h-7.08c-0.3,0-0.44-0.15-0.44-0.45v-3.12c0-0.3,0.15-0.45,0.44-0.45h7.08c0.26,0,0.39,0.15,0.39,0.45
				V264.76z M278.49,269.78c-0.04,0.07-0.09,0.11-0.17,0.11s-0.13-0.04-0.16-0.11c-1.86-4.91-3.33-10.76-4.4-17.56
				c-0.04-0.26-0.02-0.5,0.06-0.73c0.07-0.22,0.24-0.33,0.5-0.33h8.25c0.3,0,0.43,0.13,0.39,0.39
				C281.95,258.95,280.46,265.03,278.49,269.78z"/>
			<g>
				<path class="st0" d="M363.68,269.51h15.61c0.89,0,1.66-0.33,2.31-0.98c0.65-0.65,0.98-1.42,0.98-2.31v-8.86
					c0-0.89-0.33-1.66-0.98-2.31c-0.65-0.65-1.42-0.98-2.31-0.98h-15.83c-0.89,0-1.66,0.33-2.31,0.98s-0.97,1.42-0.97,2.31v6.13
					c0,8.84-1.68,15.7-5.02,20.57c-0.22,0.3-0.34,0.61-0.34,0.95c0,0.07,0.02,0.16,0.06,0.28c0.07,0.44,0.28,0.82,0.61,1.11
					c0.34,0.34,0.73,0.49,1.17,0.47c0.45-0.02,0.8-0.19,1.06-0.53c3.01-4.2,4.85-9.68,5.52-16.45
					C363.27,269.64,363.41,269.51,363.68,269.51z M363.56,263.54v-0.11v-3.46v-1.98v-0.58c0-0.3,0.13-0.44,0.39-0.44h14.72
					c0.26,0,0.39,0.15,0.39,0.44v2.57c0,0.3-0.13,0.45-0.39,0.45h-13.15v2.62h13.15c0.26,0,0.39,0.13,0.39,0.39v2.73
					c0,0.26-0.13,0.39-0.39,0.39H363.9c-0.26,0-0.39-0.13-0.39-0.39C363.55,265.57,363.56,264.69,363.56,263.54z"/>
				<path class="st0" d="M380.12,273.24h-13.88c-0.93,0-1.71,0.33-2.34,0.98c-0.64,0.65-0.95,1.42-0.95,2.31v10.71
					c0,0.45,0.16,0.84,0.47,1.17c0.31,0.33,0.7,0.5,1.17,0.5c0.46,0,0.85-0.17,1.17-0.5c0.31-0.33,0.47-0.73,0.47-1.17v-0.5v-3.68
					v-2.7v-3.71c0-0.3,0.15-0.44,0.45-0.44h12.88c0.3,0,0.45,0.15,0.45,0.44v6.41c0,0.26-0.15,0.39-0.45,0.39H368.2v3.01h11.59
					c0.15,0,0.22,0.07,0.22,0.22v0.06c0,0.48,0.17,0.89,0.5,1.23c0.34,0.33,0.74,0.5,1.2,0.5c0.46,0,0.86-0.17,1.2-0.5
					c0.33-0.34,0.5-0.74,0.5-1.23v-10.2c0-0.89-0.32-1.66-0.95-2.31C381.83,273.57,381.05,273.24,380.12,273.24z"/>
				<path class="st0" d="M389.24,243.86c-0.5,0-0.93,0.18-1.28,0.53c-0.36,0.36-0.53,0.79-0.53,1.31v27.6
					c0,0.52,0.18,0.96,0.53,1.31c0.35,0.36,0.78,0.53,1.28,0.53s0.93-0.18,1.28-0.53c0.35-0.35,0.53-0.79,0.53-1.31v-27.6
					c0-0.52-0.18-0.95-0.53-1.31C390.17,244.04,389.74,243.86,389.24,243.86z"/>
				<path class="st0" d="M374.1,238.56c-0.89-0.71-1.91-1.06-3.07-1.06c-1.15,0-2.06,0.48-2.73,1.45
					c-3.31,4.91-7.52,9.03-12.65,12.38c-0.37,0.26-0.56,0.63-0.56,1.12c0,0.41,0.13,0.74,0.39,1c0.34,0.41,0.74,0.65,1.23,0.73
					c0.48,0.07,0.95-0.02,1.39-0.28c2.38-1.67,4.61-3.51,6.69-5.52c0.11,0.04,0.17,0.07,0.17,0.11c0,0.63,0.22,1.17,0.67,1.62
					c0.44,0.45,0.98,0.67,1.62,0.67h10.31c0.37,0,0.7-0.14,0.98-0.42c0.28-0.28,0.42-0.61,0.42-1c0-0.39-0.14-0.73-0.42-1
					c-0.28-0.28-0.6-0.42-0.98-0.42h-11.82c-0.08,0-0.12-0.04-0.14-0.11s-0.01-0.15,0.03-0.22c2.12-2.08,4.01-4.22,5.68-6.41
					c0.15-0.22,0.34-0.26,0.56-0.11c3.16,2.49,6.37,5.43,9.64,8.81c0.37,0.37,0.82,0.55,1.34,0.53c0.52-0.02,0.95-0.21,1.28-0.58
					c0.33-0.41,0.49-0.88,0.47-1.42c-0.02-0.54-0.21-1.01-0.58-1.42C381.5,244.6,378.19,241.8,374.1,238.56z"/>
				<path class="st0" d="M403.43,238.68c-0.37-0.37-0.81-0.56-1.31-0.56s-0.94,0.19-1.31,0.56c-0.37,0.37-0.56,0.82-0.56,1.34v43.93
					c0,0.49-0.11,0.83-0.33,1.03c-0.22,0.21-0.59,0.33-1.11,0.36c-3.79,0-5.93,0-6.41,0c-0.44,0-0.8,0.19-1.06,0.56
					c-0.15,0.22-0.22,0.46-0.22,0.73c0,0.15,0.04,0.31,0.11,0.5c0.22,0.56,0.56,1.01,1.03,1.36c0.46,0.36,0.99,0.53,1.59,0.53h0.06
					c3.86,0,6.41-0.22,7.64-0.67c0.86-0.33,1.48-0.85,1.87-1.53c0.39-0.69,0.58-1.66,0.58-2.93v-43.87
					C403.98,239.49,403.8,239.05,403.43,238.68z"/>
			</g>
			<g>
				<path class="st0" d="M463.55,282.77c-0.37-0.37-0.82-0.56-1.34-0.56h-21.07c-0.26,0-0.39-0.13-0.39-0.39v-14.27
					c0-0.01,0.01,0,0.01-0.01v-4.42c0-0.01-0.01-0.02-0.01-0.03V251c0-0.01,0.01,0,0.01-0.01v-4.47c0-0.01-0.01-0.02-0.01-0.03
					v-8.75c0-0.52-0.19-0.97-0.58-1.36c-0.39-0.39-0.86-0.58-1.39-0.58c-0.54,0-1,0.19-1.39,0.58c-0.39,0.39-0.58,0.85-0.58,1.36
					v8.75c0,0.3-0.15,0.44-0.45,0.44h-11.26c-0.07,0-0.14-0.03-0.19-0.11c-0.06-0.07-0.07-0.17-0.03-0.28
					c0.89-2.08,1.73-4.46,2.51-7.13c0.15-0.48,0.09-0.95-0.17-1.39c-0.26-0.44-0.65-0.74-1.17-0.89c-0.52-0.11-1-0.03-1.45,0.25
					c-0.45,0.28-0.76,0.68-0.95,1.2c-2.19,7.4-5.11,13.31-8.75,17.73c-0.33,0.41-0.46,0.88-0.36,1.39s0.36,0.93,0.81,1.23
					c0.48,0.3,1.01,0.42,1.59,0.36c0.58-0.06,1.03-0.31,1.37-0.75c1.71-2.27,3.23-4.78,4.57-7.53c0.11-0.26,0.3-0.39,0.56-0.39
					h12.93c0.3,0,0.45,0.15,0.45,0.44v12.04c0,0.3-0.15,0.44-0.45,0.44H421.4c-0.49,0-0.9,0.18-1.26,0.53
					c-0.35,0.36-0.53,0.78-0.53,1.28s0.18,0.93,0.53,1.28c0.36,0.36,0.77,0.53,1.26,0.53h14.94c0.3,0,0.45,0.13,0.45,0.39v14.27
					c0,0.26-0.15,0.39-0.45,0.39h-21.07c-0.49,0-0.91,0.19-1.28,0.56c-0.37,0.37-0.56,0.81-0.56,1.31c0,0.5,0.18,0.93,0.56,1.31
					c0.37,0.37,0.8,0.56,1.28,0.56h46.94c0.52,0,0.97-0.19,1.34-0.56c0.37-0.37,0.56-0.81,0.56-1.31
					C464.11,283.58,463.92,283.15,463.55,282.77z"/>
				<path class="st0" d="M442.72,250.61h16.88c0.52,0,0.95-0.18,1.31-0.53c0.35-0.35,0.53-0.79,0.53-1.31
					c0-0.52-0.18-0.95-0.53-1.31c-0.36-0.35-0.79-0.53-1.31-0.53h-16.88V250.61z"/>
				<path class="st0" d="M458.84,266.63c0.36-0.35,0.53-0.78,0.53-1.28s-0.18-0.93-0.53-1.28c-0.35-0.35-0.79-0.53-1.31-0.53h-14.82
					v3.63h14.82C458.05,267.17,458.49,266.99,458.84,266.63z"/>
			</g>
			<g>
				<path class="st0" d="M219.53,261.03h-27.15c-0.89,0-1.66,0.33-2.31,0.97c-0.65,0.65-0.98,1.42-0.98,2.31v22.75
					c0,0.56,0.18,1.02,0.56,1.39c0.37,0.37,0.83,0.56,1.36,0.56s0.99-0.19,1.36-0.56c0.37-0.37,0.56-0.84,0.56-1.39v-5.15v-2.04
					v-3.74v-3.9v-3.68v-1.5v-2.34c0-0.3,0.13-0.45,0.39-0.45h25.26c0.3,0,0.44,0.15,0.44,0.45v3.84c0,0.26-0.15,0.39-0.44,0.39
					h-23.69v2.9h23.69c0.3,0,0.44,0.13,0.44,0.39v3.9c0,0.3-0.15,0.44-0.44,0.44h-23.69v2.9h23.69c0.3,0,0.44,0.13,0.44,0.39v4.96
					c0,0.37-0.08,0.63-0.25,0.78c-0.17,0.15-0.47,0.22-0.92,0.22c-0.48,0.04-1.19,0.06-2.12,0.06c-1.04,0-2.34-0.02-3.9-0.06
					c-0.37,0-0.66,0.16-0.86,0.47c-0.21,0.31-0.24,0.66-0.09,1.03c0.44,1.08,1.21,1.62,2.29,1.62c3.83,0,6.3-0.17,7.41-0.5
					c0.82-0.26,1.39-0.66,1.73-1.2c0.33-0.54,0.5-1.35,0.5-2.42v-20.52c0-0.89-0.32-1.66-0.95-2.31
					C221.24,261.36,220.46,261.03,219.53,261.03z"/>
				<path class="st0" d="M200.8,246.48c0.15-0.22,0.37-0.33,0.67-0.33h27.54c0.44,0,0.83-0.17,1.17-0.5c0.33-0.34,0.5-0.74,0.5-1.23
					s-0.17-0.89-0.5-1.23c-0.34-0.34-0.73-0.5-1.17-0.5h-21.02c-0.03,0-0.02-0.05-0.05-0.05h-4.53c-0.03,0-0.02,0.05-0.05,0.05
					h-20.74c-0.44,0-0.83,0.17-1.17,0.5c-0.33,0.33-0.5,0.74-0.5,1.23s0.17,0.89,0.5,1.23c0.34,0.33,0.73,0.5,1.17,0.5h13.1
					c0.11,0,0.19,0.04,0.22,0.11c0.03,0.07,0.03,0.15,0,0.22c-1.53,2.57-3.09,4.85-4.69,6.86c-0.15,0.22-0.37,0.34-0.67,0.34
					l-5.58,0.11c-0.48,0-0.9,0.18-1.25,0.53c-0.36,0.36-0.51,0.77-0.47,1.25c0.04,0.52,0.23,0.95,0.59,1.28
					c0.35,0.34,0.79,0.5,1.31,0.5c8.4-0.22,20.87-0.59,37.41-1.12c0.26,0,0.5,0.09,0.73,0.28c0.86,0.78,1.62,1.49,2.28,2.12
					c0.37,0.41,0.84,0.64,1.39,0.67c0.07,0,0.15,0,0.22,0c0.48,0,0.91-0.13,1.28-0.39c0.41-0.33,0.63-0.76,0.67-1.28
					s-0.13-0.95-0.5-1.28c-3.16-2.97-7.04-5.98-11.65-9.03c-0.48-0.34-0.98-0.5-1.48-0.5c-0.5,0-1.01,0.16-1.53,0.5
					c-0.33,0.22-0.5,0.55-0.5,0.98s0.17,0.75,0.5,0.98c1.53,1.04,3.18,2.25,4.96,3.62c0.04,0.04,0.04,0.09,0.03,0.17
					c-0.02,0.07-0.07,0.11-0.14,0.11c-10.7,0.22-18.47,0.37-23.3,0.45c-0.07,0-0.13-0.04-0.17-0.11c-0.04-0.07-0.04-0.15,0-0.22
					C197.1,251.31,198.91,249.04,200.8,246.48z"/>
			</g>
			<circle class="st0" cx="69.39" cy="255.93" r="3.24"/>
			<circle class="st0" cx="205.68" cy="237" r="3.24"/>
			<circle class="st0" cx="251.64" cy="321.57" r="3.24"/>
			<circle class="st0" cx="276.13" cy="321.57" r="3.24"/>
			<g>
				<path class="st0" d="M312.88,251.47c0.36,0.35,0.79,0.53,1.31,0.53h31c0.48,0,0.9-0.18,1.26-0.53c0.35-0.36,0.53-0.78,0.53-1.28
					c0-0.5-0.18-0.93-0.53-1.28c-0.36-0.36-0.77-0.53-1.26-0.53h-13.66c0,0-0.01,0-0.01,0h-4.55c0,0-0.01,0-0.01,0H314.2
					c-0.52,0-0.96,0.18-1.31,0.53c-0.35,0.35-0.53,0.78-0.53,1.28C312.36,250.69,312.53,251.12,312.88,251.47z"/>
				<path class="st0" d="M318.88,256.29c-0.44,0.07-0.79,0.31-1.03,0.7c-0.24,0.39-0.31,0.81-0.19,1.25
					c1.78,7.06,3.01,13.66,3.68,19.79c0.07,0.48,0.31,0.88,0.73,1.17c0.41,0.3,0.85,0.39,1.34,0.28c0.52-0.11,0.94-0.39,1.25-0.84
					c0.31-0.44,0.46-0.93,0.42-1.45c-0.74-5.87-2.08-12.4-4.02-19.57c-0.15-0.45-0.43-0.8-0.83-1.06
					C319.81,256.31,319.36,256.22,318.88,256.29z"/>
				<path class="st0" d="M347.95,283.25c-0.35-0.35-0.77-0.53-1.25-0.53h-11.82c-0.11,0-0.19-0.04-0.25-0.11
					c-0.06-0.07-0.07-0.16-0.03-0.28c1.15-3.12,2.36-6.85,3.63-11.18c1.26-4.33,2.43-8.65,3.51-12.96c0.11-0.56,0.02-1.07-0.28-1.53
					c-0.3-0.46-0.73-0.73-1.28-0.81c-0.11-0.04-0.24-0.06-0.39-0.06c-0.41,0-0.8,0.13-1.17,0.39c-0.45,0.34-0.73,0.78-0.84,1.34
					c-0.82,4.02-1.86,8.34-3.12,12.96c-1.26,4.63-2.51,8.57-3.74,11.85c-0.07,0.26-0.26,0.39-0.56,0.39h-17.62
					c-0.52,0-0.96,0.18-1.31,0.53c-0.36,0.35-0.53,0.78-0.53,1.28s0.18,0.93,0.53,1.28c0.35,0.35,0.79,0.53,1.31,0.53h33.95
					c0.48,0,0.9-0.18,1.25-0.53c0.36-0.36,0.53-0.78,0.53-1.28S348.31,283.6,347.95,283.25z"/>
				<path class="st0" d="M312.58,238.62c-0.22-0.44-0.56-0.74-1-0.89c-0.22-0.03-0.43-0.05-0.61-0.05c-0.3,0-0.58,0.07-0.84,0.22
					c-0.48,0.22-0.83,0.58-1.06,1.06c-1.49,3.65-3.33,7.16-5.52,10.54c-2.2,3.38-4.52,6.34-6.97,8.87
					c-0.41,0.41-0.65,0.93-0.73,1.56c0,0.11,0,0.21,0,0.28c0,0.52,0.13,0.98,0.39,1.39c0.26,0.48,0.65,0.76,1.17,0.83
					s0.96-0.09,1.34-0.5c1.6-1.75,3.21-3.72,4.85-5.91c0.04-0.07,0.08-0.09,0.14-0.06c0.06,0.04,0.08,0.07,0.08,0.11v30.94
					c0,0.52,0.18,0.96,0.53,1.31c0.35,0.35,0.78,0.53,1.28,0.53c0.5,0,0.93-0.18,1.28-0.53c0.35-0.36,0.53-0.79,0.53-1.31v-36.4
					c0-0.26,0.07-0.52,0.22-0.78c1.86-3.2,3.51-6.49,4.96-9.87C312.82,239.51,312.8,239.06,312.58,238.62z"/>
			</g>
			<circle class="st0" cx="328.98" cy="242.74" r="3.24"/>
		</g>
		<g>
		</g>
		<g>
		</g>
		<g>
		</g>
		<g>
		</g>
		<path class="st2" d="M281.96,156.05c1.33,1.55,2.73,3.08,4.22,4.57c1.4,1.4,2.84,2.71,4.3,3.99c9.25,8.05,20.03,13.91,31.75,17.28
			c-3.35-11.74-9.23-22.5-17.28-31.75c-1.29-1.46-2.6-2.91-3.99-4.3c-1.4-1.4-2.84-2.71-4.3-3.99c-0.47-0.42-0.95-0.78-1.42-1.2
			c-1.02-0.84-2.06-1.66-3.11-2.48c-0.6-0.42-1.15-0.84-1.75-1.26c-1.02-0.71-2.02-1.4-3.06-2.09c-0.62-0.4-1.24-0.8-1.84-1.18
			c-1.09-0.64-2.15-1.26-3.26-1.89c-0.6-0.33-1.2-0.67-1.8-1c-1.26-0.64-2.53-1.24-3.82-1.82c-0.47-0.24-0.91-0.47-1.42-0.67
			c-1.75-0.78-3.57-1.49-5.39-2.15c-0.27-0.09-0.55-0.16-0.84-0.27c-1.33-0.44-2.64-0.87-4.02-1.26c-2.4-0.67-4.79-1.29-7.25-1.75
			c-1-0.2-2.02-0.29-3.02-0.44c-0.02-0.02-0.02-0.07-0.04-0.09c-1.13-0.2-2.26-0.27-3.39-0.42c-0.69-0.07-1.4-0.16-2.11-0.24
			c-2.46-0.2-4.93-0.35-7.41-0.35c-2.09,0-4.15,0.11-6.23,0.24c-0.04,0-0.11,0.02-0.18,0c0.04-0.27,0.13-0.53,0.2-0.82
			c0-0.13,0.04-0.27,0.09-0.4c0.53-2.75,0.93-5.5,1.22-8.27c1.62-0.11,3.24-0.13,4.88-0.13l0.02-0.02c0.4,0,0.82,0.02,1.22,0.02
			c1.24,0.04,2.48,0.04,3.73,0.13c0.71,0.04,1.42,0.09,2.11,0.16c1.04,0.07,2.06,0.16,3.06,0.27c2.55,0.29,5.12,0.64,7.65,1.13
			c1.73,0.35,3.44,0.78,5.15,1.2c0.95,0.24,1.91,0.49,2.84,0.75c1.24,0.36,2.44,0.75,3.64,1.15c0.93,0.31,1.84,0.6,2.77,0.95
			c1.18,0.42,2.35,0.89,3.55,1.38c0.87,0.38,1.77,0.75,2.66,1.15c1.18,0.51,2.31,1.06,3.44,1.66c0.87,0.42,1.73,0.84,2.57,1.29
			c1.15,0.62,2.26,1.29,3.37,1.95c0.8,0.49,1.6,0.93,2.37,1.44c1.18,0.73,2.28,1.53,3.39,2.33c0.71,0.49,1.44,0.95,2.15,1.49
			c1.2,0.89,2.35,1.86,3.53,2.82c0.58,0.49,1.15,0.93,1.73,1.42c1.71,1.49,3.37,3.02,4.97,4.61c2,2,3.84,4.06,5.63,6.21
			c10.09,12.09,16.97,26.42,19.94,41.95l1.31,6.81l-6.81-1.31c-15.53-2.97-29.86-9.85-41.95-19.94c-2.15-1.8-4.21-3.64-6.21-5.63
			c-1.46-1.46-2.88-3.02-4.24-4.55c-8.63-9.87-15.04-21.34-18.88-33.79c0.02,0.02,0.07,0.02,0.09,0c3.75,0.73,7.39,1.71,10.94,2.95
			C270.85,140.68,275.73,148.84,281.96,156.05z M260.64,107.49c0.13,0.04,0.24,0.07,0.35,0.09c0.31,0.04,0.6,0.16,0.89,0.22
			c0-0.09,0-0.13,0-0.22c-0.16-2.06-0.24-4.15-0.24-6.23c0-2.44,0.16-4.95,0.36-7.41c0.09-0.71,0.18-1.38,0.27-2.09
			c0.13-1.15,0.22-2.26,0.4-3.42c0.04,0,0.07-0.02,0.11-0.02c0.13-1.02,0.22-2.04,0.42-3.04c0.47-2.46,1.09-4.86,1.77-7.23
			c-0.02-0.02-0.02-0.02-0.04,0c0.18-0.67,0.38-1.31,0.62-1.95c0.2-0.64,0.42-1.31,0.62-1.95c0.11-0.33,0.22-0.67,0.33-1
			c0.64-1.8,1.35-3.62,2.13-5.37c0.2-0.51,0.47-1,0.71-1.51c0.58-1.24,1.15-2.48,1.77-3.68c0.33-0.64,0.69-1.26,1.04-1.89
			c0.58-1.06,1.2-2.13,1.84-3.17c0.38-0.64,0.8-1.29,1.2-1.91c0.67-1.02,1.35-2.02,2.06-3.04c0.44-0.58,0.84-1.15,1.31-1.75
			c0.78-1.04,1.6-2.09,2.46-3.08c0.4-0.49,0.78-1,1.2-1.46c1.29-1.46,2.6-2.91,3.97-4.28c10.12-10.12,22.47-17.37,36.05-21.27
			c-3.9,13.58-11.16,25.93-21.27,36.05c-1.46,1.46-3,2.86-4.57,4.21c-7.21,6.23-15.37,11.11-24.14,14.55
			c-1.24,3.55-2.24,7.17-2.95,10.89c0,0.04,0,0.09-0.02,0.11c12.45-3.84,23.94-10.23,33.79-18.88c1.55-1.38,3.08-2.77,4.55-4.24
			c13.22-13.22,22.07-29.88,25.58-48.16l1.33-6.83l-6.83,1.33c-18.28,3.51-34.94,12.36-48.16,25.58c-1.6,1.6-3.13,3.26-4.61,4.97
			c-0.49,0.58-0.93,1.15-1.42,1.73c-0.95,1.18-1.91,2.31-2.82,3.53c-0.53,0.71-1.02,1.46-1.53,2.2c-0.78,1.09-1.53,2.2-2.26,3.33
			c-0.53,0.8-1,1.62-1.46,2.44c-0.67,1.11-1.31,2.2-1.93,3.31c-0.49,0.89-0.91,1.75-1.35,2.64c-0.55,1.13-1.11,2.22-1.62,3.35
			c-0.4,0.93-0.8,1.86-1.18,2.77c-0.47,1.13-0.91,2.29-1.35,3.44c-0.33,0.95-0.67,1.91-0.98,2.88c-0.4,1.15-0.78,2.33-1.11,3.51
			c-0.27,0.98-0.53,2-0.8,2.97c-0.16,0.64-0.31,1.29-0.49,1.91c-0.22,1.06-0.47,2.11-0.67,3.19c-0.51,2.51-0.87,5.08-1.15,7.63
			c-0.11,1-0.2,2.02-0.27,3.02c-0.07,0.73-0.13,1.46-0.18,2.22c-0.04,1.06-0.07,2.15-0.09,3.24c-0.02,0.55-0.02,1.09,0,1.64
			c-0.02,1.62,0,3.28,0.09,4.93C255.14,106.56,257.91,106.98,260.64,107.49z M180.73,68.13c0.58,0.49,1.18,0.95,1.77,1.42
			c1.13,0.95,2.31,1.91,3.48,2.82c0.75,0.53,1.49,1.04,2.22,1.55c1.11,0.75,2.2,1.53,3.33,2.26c0.82,0.51,1.64,0.98,2.46,1.49
			c1.09,0.64,2.17,1.29,3.28,1.91c0.89,0.49,1.8,0.91,2.68,1.35c1.09,0.55,2.2,1.09,3.31,1.62c0.93,0.4,1.89,0.78,2.82,1.18
			c1.13,0.47,2.24,0.91,3.37,1.33c0.98,0.36,1.97,0.69,2.95,1c1.15,0.4,2.28,0.78,3.44,1.09c1,0.29,2.02,0.55,3.04,0.82
			c0.31,0.09,0.64,0.16,0.95,0.24c1.35,0.33,2.73,0.64,4.1,0.91c2.62,0.53,5.28,0.89,7.96,1.18c0.49,0.04,0.98,0.09,1.49,0.11
			c2.53,0.27,5.06,0.4,7.59,0.4c0.09,0,0.16,0.02,0.22,0c1.8,0.02,3.62-0.02,5.41-0.13c0.22-2,0.49-3.99,0.82-5.97
			c0.16-0.78,0.27-1.55,0.4-2.31c0.09-0.44,0.2-0.82,0.29-1.22c-0.22,0-0.44,0-0.64,0.02c-2.09,0.13-4.17,0.22-6.23,0.2
			c-0.18,0-0.33-0.02-0.49,0c-2.22-0.04-4.41-0.16-6.61-0.35c-0.78-0.07-1.55-0.18-2.35-0.27c-1-0.11-2.02-0.2-3.02-0.35
			c0-0.04-0.02-0.07-0.02-0.11c-1.02-0.13-2.04-0.22-3.04-0.42c-2.44-0.49-4.86-1.09-7.23-1.77l0,0.04c-0.6-0.16-1.2-0.35-1.77-0.58
			c-0.62-0.18-1.22-0.38-1.77-0.58c-0.47-0.16-0.93-0.27-1.38-0.44c-1.82-0.62-3.57-1.35-5.32-2.09c-0.55-0.24-1.06-0.53-1.6-0.75
			c-1.22-0.55-2.42-1.13-3.62-1.75c-0.64-0.33-1.26-0.69-1.89-1.04c-1.09-0.6-2.13-1.2-3.17-1.84c-0.64-0.38-1.29-0.8-1.91-1.2
			c-1.02-0.67-2.02-1.35-3.02-2.09c-0.6-0.42-1.2-0.84-1.77-1.29c-1.06-0.8-2.06-1.62-3.08-2.46c-0.49-0.4-1-0.78-1.46-1.2
			c-1.46-1.29-2.91-2.6-4.3-3.99c-1.35-1.35-2.64-2.77-3.88-4.19c-8.12-9.27-14.02-20.1-17.39-31.86
			c11.76,3.37,22.58,9.27,31.88,17.37c1.42,1.24,2.82,2.55,4.17,3.9c1.49,1.49,2.88,3.02,4.22,4.57
			c6.23,7.21,11.11,15.37,14.58,24.16c3.55,1.24,7.19,2.22,10.91,2.97c0.02-0.02,0.07-0.02,0.09,0
			c-3.82-12.47-10.23-23.94-18.9-33.81c-1.33-1.55-2.77-3.08-4.24-4.55c-1.97-1.97-4.06-3.84-6.21-5.63
			c-12.09-10.09-26.42-16.97-41.95-19.94l-6.81-1.31l1.31,6.81c2.97,15.53,9.85,29.86,19.94,41.95c1.8,2.15,3.66,4.24,5.63,6.21
			C177.38,65.14,179.05,66.67,180.73,68.13z M155.71,192.86c18.28-3.51,34.94-12.36,48.16-25.58c1.62-1.62,3.15-3.28,4.61-4.97
			c0.49-0.58,0.95-1.18,1.44-1.75c0.93-1.15,1.91-2.31,2.8-3.51c0.53-0.71,1.02-1.46,1.53-2.2c0.75-1.11,1.55-2.22,2.26-3.33
			c0.53-0.8,1-1.62,1.46-2.44c0.67-1.11,1.33-2.22,1.95-3.33c0.47-0.87,0.89-1.73,1.33-2.62c0.55-1.13,1.11-2.22,1.64-3.37
			c0.4-0.93,0.78-1.84,1.15-2.75c0.47-1.13,0.93-2.31,1.35-3.44c0.35-0.98,0.69-1.93,0.98-2.88c0.4-1.15,0.78-2.33,1.11-3.51
			c0.29-1,0.53-2,0.78-2.99c0.42-1.66,0.87-3.35,1.18-5.08c0.49-2.4,0.84-4.84,1.11-7.28c0.02-0.24,0.04-0.44,0.07-0.69
			c0.07-0.51,0.11-1,0.16-1.49c0.2-2.51,0.35-5.06,0.38-7.57c0-0.09,0-0.18,0.02-0.24c0-1.82-0.04-3.59-0.16-5.39
			c-2.09-0.22-4.13-0.53-6.19-0.87c-0.71-0.13-1.4-0.24-2.09-0.36c-0.4-0.09-0.82-0.2-1.22-0.29c0.02,0.2,0,0.4,0,0.62
			c0.18,2.26,0.24,4.55,0.2,6.81c-0.02,2.2-0.13,4.35-0.35,6.52c-0.04,0.75-0.16,1.49-0.27,2.22c-0.11,1.04-0.2,2.11-0.36,3.15
			c-0.04,0-0.07,0.02-0.11,0.02c-0.13,1.02-0.22,2.04-0.42,3.04c-0.47,2.46-1.09,4.86-1.77,7.23c0.02,0.02,0.04,0,0.04,0
			c-0.18,0.67-0.38,1.31-0.62,1.95c-0.2,0.64-0.4,1.29-0.62,1.95c-0.11,0.33-0.22,0.67-0.33,1c-0.64,1.8-1.35,3.62-2.13,5.37
			c-0.22,0.49-0.44,0.98-0.67,1.46c-0.6,1.26-1.18,2.51-1.82,3.73c-0.33,0.64-0.67,1.24-1.02,1.86c-0.6,1.09-1.22,2.15-1.86,3.19
			c-0.38,0.64-0.78,1.26-1.18,1.89c-0.69,1.04-1.38,2.04-2.06,3.04c-0.44,0.58-0.87,1.18-1.31,1.75c-0.8,1.06-1.62,2.11-2.48,3.11
			c-0.4,0.49-0.75,0.98-1.18,1.44c-1.29,1.46-2.6,2.91-3.99,4.3c-10.12,10.12-22.47,17.37-36.05,21.27
			c3.9-13.58,11.16-25.93,21.27-36.05c1.49-1.49,3.02-2.88,4.59-4.24c7.19-6.21,15.35-11.09,24.11-14.53
			c1.24-3.55,2.24-7.17,2.97-10.91c0-0.04-0.02-0.07,0-0.09c-12.45,3.84-23.92,10.2-33.77,18.86c-1.55,1.38-3.08,2.77-4.57,4.26
			c-13.22,13.22-22.07,29.88-25.58,48.16l-1.31,6.81L155.71,192.86z"/>
		<g>
			<circle class="st3" cx="241.71" cy="183.86" r="11.39"/>
			<circle class="st3" cx="241.71" cy="18.83" r="11.39"/>
		</g>
		<g>
			<path class="st4" d="M345.4,65.58c8.5,2.91,12.76,17.84,1.36,22.28c-1.2,0.47-2.53,0.59-3.81,0.82
				c-7.16,1.32-12.26,4.83-12.23,12.78c0.04,7.94,5.15,11.18,12.33,12.67c8.39,1.74,12.34,6.55,11.51,13.03
				c-0.8,6.25-6.1,10.73-12.54,10.42c-6.03-0.29-9.86-3.54-10.69-9.44c-1.26-8.93-5.64-14.04-14.96-15.11
				c-6.23-0.71-9.77-5.12-9.87-11.3c-0.11-6.52,3.32-10.96,10.04-11.89c6.19-0.86,11.32-4.13,13.54-10.1c1.08-2.9,1.69-6,3.13-8.74
				C335.46,66.69,340.61,63.94,345.4,65.58z"/>
			<path class="st4" d="M138.01,137.11c-8.5-2.91-12.76-17.84-1.36-22.28c1.19-0.47,2.53-0.59,3.81-0.82
				c7.16-1.32,12.26-4.83,12.23-12.78c-0.04-7.94-5.15-11.18-12.33-12.67c-8.39-1.74-12.34-6.55-11.51-13.03
				c0.8-6.25,6.1-10.73,12.54-10.42c6.03,0.29,9.86,3.54,10.69,9.44c1.26,8.93,5.64,14.04,14.96,15.11
				c6.23,0.71,9.77,5.12,9.87,11.3c0.11,6.52-3.32,10.96-10.04,11.89c-6.19,0.86-11.32,4.13-13.54,10.1c-1.08,2.9-1.69,6-3.13,8.74
				C147.96,136,142.8,138.75,138.01,137.11z"/>
		</g>
	</g>
</g>
<g id="圖層_2">
</g>
</svg>
