<?xml version="1.0" encoding="utf-8"?>
<!-- Generator: Adobe Illustrator 23.0.1, SVG Export Plug-In . SVG Version: 6.00 Build 0)  -->
<svg version="1.1" id="圖層_1" xmlns="http://www.w3.org/2000/svg" xmlns:xlink="http://www.w3.org/1999/xlink" x="0px" y="0px"
	 viewBox="0 0 312.8 61.7" style="enable-background:new 0 0 312.8 61.7;" xml:space="preserve">
<style type="text/css">
	.st0{fill:#FFFFFF;}
	.st1{fill:#3E3A39;}
	.st2{fill:none;stroke:#000000;stroke-width:3.0438;stroke-miterlimit:10;}
	.st3{fill:#21B8C5;}
	.st4{fill:#B6D55D;}
	.st5{fill:#E5A960;}
	.st6{clip-path:url(#SVGID_2_);}
	.st7{clip-path:url(#SVGID_3_);}
	.st8{fill:#E6D505;}
	.st9{fill:#8DC43D;}
	.st10{fill:#FBFBEA;}
	.st11{fill:#8CC33D;}
	.st12{fill:#7EBF3C;}
	.st13{fill:#DAD009;}
	.st14{fill:#FFEE2E;}
	.st15{fill:#009F41;}
	.st16{fill:#29AC3B;}
	.st17{fill:#6EBA3C;}
	.st18{fill:#2CAD3B;}
	.st19{fill:#00774A;}
	.st20{fill:#36AE3B;}
	.st21{fill:#28AC3B;}
	.st22{fill:#DFD208;}
	.st23{fill:#32AD3B;}
	.st24{fill:#DBD108;}
	.st25{fill:#45B13B;}
	.st26{fill:#CFCD0A;}
	.st27{fill:#84C13C;}
	.st28{fill:#65B73B;}
	.st29{fill:#00A041;}
	.st30{fill:#35AE3B;}
	.st31{fill:#2FAD3B;}
	.st32{fill:#40B03B;}
	.st33{fill:#CCCB0A;}
	.st34{fill:#D9D009;}
	.st35{fill:#C4C80C;}
	.st36{fill:#E6D506;}
	.st37{fill:#C1C70E;}
	.st38{fill:#566667;}
	.st39{fill:#FBFBE9;}
	.st40{fill:#F08A58;}
	.st41{fill:#1FAB3C;}
	.st42{fill:#7FBF3C;}
	.st43{fill:#2C893A;}
	.st44{fill:#7BBE3C;}
	.st45{fill:#7ABE3C;}
	.st46{fill:#E1D308;}
	.st47{fill:#85C13D;}
	.st48{fill:#E3D307;}
	.st49{fill:#72BB3B;}
	.st50{fill:#30AD3B;}
	.st51{fill:#71BB3B;}
	.st52{clip-path:url(#SVGID_8_);}
	.st53{fill:#D7CF0A;}
	.st54{fill:#DED207;}
	.st55{fill:#72BB3C;}
	.st56{fill:#6BB93C;}
	.st57{fill:#2EAD3B;}
	.st58{fill:#7FBF3E;}
	.st59{fill:#D5CF07;}
	.st60{fill:#E7D505;}
	.st61{fill:#D5CE09;}
	.st62{fill:#BDC60D;}
	.st63{fill:#8BC33D;}
	.st64{clip-path:url(#SVGID_9_);}
	.st65{fill:#82C03D;}
	.st66{clip-path:url(#SVGID_11_);}
	.st67{fill:#F6BDC0;}
	.st68{fill:#008E43;}
	.st69{fill:#F08958;}
	.st70{fill:#FAFBE8;}
	.st71{fill:#BAD8C0;}
	.st72{fill:#FBFCEA;}
	.st73{fill:#009142;}
	.st74{fill:#FFFCDB;}
	.st75{fill:#72C6F0;}
	.st76{fill:#F6BEBB;}
	.st77{fill:#FFDA00;}
	.st78{fill:#00A040;}
	.st79{fill:#00A042;}
	.st80{fill:#F4BE00;}
	.st81{fill:#7F862A;}
	.st82{fill:#7F872A;}
	.st83{fill:#7F872B;}
	.st84{fill:#80872A;}
	.st85{fill:#F08C5A;}
	.st86{fill:#F08B5A;}
	.st87{fill:#F08B59;}
	.st88{fill:#F08C5B;}
	.st89{fill:#F18D5C;}
	.st90{fill:#00A043;}
	.st91{fill:#80872B;}
	.st92{fill:#00814C;}
	.st93{fill:#6BC8F2;}
	.st94{clip-path:url(#SVGID_12_);}
	.st95{clip-path:url(#SVGID_14_);}
	.st96{fill:#00A33E;}
	.st97{fill:#00AA7B;}
	.st98{fill:#EF8454;}
	.st99{fill:#FFFEEE;}
	.st100{fill:#FFEB27;}
	.st101{fill:#4F5F64;}
	.st102{fill:#FFD900;}
	.st103{fill:#F6BCB8;}
	.st104{opacity:0.74;clip-path:url(#SVGID_2_);}
	.st105{fill:#5F4942;}
	.st106{fill:#F6AC19;}
	.st107{fill:#E46006;}
	.st108{fill:none;stroke:#FFDA00;stroke-width:1.4752;stroke-linecap:round;stroke-linejoin:round;stroke-miterlimit:10;}
	.st109{fill:none;stroke:#000000;stroke-width:2.3006;stroke-miterlimit:10;}
	.st110{fill:none;stroke:#B6D55D;stroke-width:1.3059;stroke-miterlimit:10;}
	.st111{fill:#00AA52;}
</style>
<g>
	<g>
		<g>
			<g>
				<g>
					<path class="st1" d="M142.5,39.5c0.2,0.2,0.2,0.4,0.2,0.6c0,0.2-0.1,0.4-0.2,0.6c-0.2,0.2-0.4,0.2-0.6,0.2h-1.3
						c-0.1,0-0.2,0.1-0.3,0.2c-0.7,1.7-1.8,3.2-3.2,4.5c-0.1,0.1-0.1,0.2,0,0.2c1.5,1,3.2,1.7,5.1,2.2c0.2,0.1,0.3,0.2,0.4,0.4
						c0,0.1,0,0.1,0,0.2c0,0.1,0,0.3-0.1,0.4c-0.2,0.2-0.4,0.4-0.7,0.5c-0.3,0.1-0.5,0.1-0.8,0c-1.9-0.6-3.7-1.5-5.3-2.7
						c-0.1-0.1-0.2-0.1-0.3,0c-1.4,1-3,1.8-4.9,2.5c-0.1,0.1-0.3,0.1-0.5,0.1c-0.2,0-0.3,0-0.5-0.1c-0.3-0.1-0.6-0.3-0.8-0.6
						c0,0,0,0-0.1,0c0,0,0,0-0.1,0.1c-0.5,1.4-0.9,2.6-1.3,3.5c-0.1,0.2-0.2,0.3-0.4,0.4c-0.2,0.1-0.4,0.1-0.6,0
						c-0.2-0.1-0.3-0.2-0.4-0.4s-0.1-0.4,0-0.6c0.4-0.9,0.8-2.2,1.3-3.7c0-0.1,0-0.1,0-0.1c0,0-0.1-0.1-0.1-0.1h-2.5
						c-0.1,0-0.2,0.1-0.2,0.2v11.6c0,0.5-0.1,0.9-0.2,1.1c-0.1,0.3-0.4,0.5-0.7,0.6c-0.5,0.2-1.3,0.3-2.5,0.3
						c-0.3,0-0.5-0.1-0.7-0.2c-0.2-0.2-0.3-0.4-0.4-0.6c-0.1-0.2-0.1-0.4,0.1-0.5c0.1-0.2,0.3-0.2,0.5-0.2c0.3,0,0.6,0,0.8,0
						c0.5,0,0.8,0,1,0c0.2,0,0.3,0,0.3-0.1c0.1,0,0.1-0.1,0.1-0.3v-9.3c0,0,0,0,0,0s0,0,0,0c-1.1,2.6-2.2,4.7-3.5,6.2
						c-0.2,0.2-0.4,0.3-0.6,0.2c-0.2,0-0.4-0.1-0.5-0.4c-0.1-0.2-0.2-0.5-0.2-0.8c0-0.3,0.1-0.5,0.3-0.7c1.5-1.8,2.8-4.1,3.8-6.8
						c0-0.1,0-0.1,0-0.1c0,0-0.1-0.1-0.1-0.1h-3.3c-0.2,0-0.4-0.1-0.6-0.2c-0.2-0.2-0.2-0.4-0.2-0.6c0-0.2,0.1-0.4,0.2-0.6
						c0.2-0.2,0.4-0.2,0.6-0.2h6.5c0,0,0.1,0,0.1,0s0-0.1,0-0.1c-1.4-1.2-3.2-2.4-5.3-3.4c-0.2-0.1-0.3-0.2-0.3-0.4
						c0-0.2,0-0.4,0.1-0.5c0.3-0.3,0.5-0.4,0.8-0.4c0.2,0,0.3,0,0.5,0.1c0.6,0.3,1.3,0.6,1.9,1c0.1,0.1,0.2,0,0.4,0
						c1-0.8,1.9-1.7,2.8-2.7c0,0,0,0,0-0.1c0,0,0-0.1-0.1-0.1H119c-0.2,0-0.4-0.1-0.6-0.2c-0.2-0.2-0.2-0.4-0.2-0.6
						c0-0.2,0.1-0.4,0.2-0.6c0.2-0.2,0.4-0.2,0.6-0.2h8.6c0,0,0.1,0,0.1,0c0.2-0.1,0.4,0,0.5,0.1l0.4,0.2c0.2,0.1,0.3,0.3,0.3,0.4
						c0,0.2,0,0.4-0.1,0.5c-1.1,1.4-2.4,2.8-4,4c-0.1,0.1-0.1,0.2,0,0.2c0.5,0.3,0.9,0.6,1.2,0.8c0.3,0.2,0.5,0.6,0.5,1
						c0,0.3-0.1,0.6-0.4,0.9c0,0,0,0,0,0.1c0,0,0,0,0,0h2c0,0,0,0,0.1,0c0.1-0.1,0.3-0.1,0.4,0l0.4,0.1c0.2,0.1,0.3,0.2,0.4,0.3
						c0.1,0.2,0.1,0.3,0,0.5c-0.1,0.2-0.1,0.5-0.2,0.8c0,0,0,0.1,0,0.1s0.1,0,0.1,0c1.9-0.5,3.5-1.3,4.9-2.2c0.1-0.1,0.1-0.2,0-0.2
						c-1.1-1-2-2.1-2.8-3.3c-0.1-0.1-0.2-0.1-0.2,0c-0.4,0.5-0.9,0.9-1.3,1.4c-0.2,0.2-0.4,0.3-0.7,0.3c-0.3,0-0.5-0.1-0.7-0.2
						c-0.2-0.1-0.3-0.3-0.3-0.5c0-0.2,0.1-0.4,0.3-0.6c1.7-1.5,3.1-3.3,4.2-5.4c0.1-0.2,0.3-0.4,0.5-0.5c0.1-0.1,0.3-0.1,0.5-0.1
						c0.1,0,0.2,0,0.3,0.1c0.2,0.1,0.4,0.2,0.5,0.4c0.1,0.2,0.1,0.4,0,0.7c-0.2,0.5-0.5,1-0.8,1.5c0,0,0,0.1,0,0.1s0.1,0.1,0.1,0.1
						h8.4C142.2,39.3,142.3,39.4,142.5,39.5z M135.6,51.7c0,0.1,0,0.2,0.2,0.2h4.7c0.4,0,0.8,0.2,1.1,0.5c0.3,0.3,0.4,0.6,0.4,1
						c0,0.1,0,0.1,0,0.2c-0.2,2.3-0.5,4-0.8,5.1c-0.3,1.1-0.6,1.9-1,2.3c-0.4,0.4-0.9,0.6-1.7,0.7c-0.3,0-0.7,0-1.1,0
						c-0.3,0-0.7,0-1.1,0c-0.3,0-0.5-0.1-0.7-0.3c-0.2-0.2-0.3-0.4-0.4-0.6c-0.1-0.2,0-0.4,0.1-0.5c0.1-0.2,0.3-0.2,0.5-0.2
						c0.7,0.1,1.3,0.1,1.9,0.1c0.4,0,0.7-0.1,1-0.3c0.6-0.6,1-2.6,1.4-6c0-0.1-0.1-0.2-0.2-0.2h-4.5c-0.1,0-0.2,0.1-0.3,0.2
						c-0.5,1.8-1.2,3.3-2.3,4.5c-1,1.3-2.4,2.3-4.2,3.1c-0.3,0.1-0.5,0.1-0.7,0c-0.2-0.1-0.4-0.2-0.6-0.4c-0.1-0.2-0.2-0.3-0.1-0.6
						c0-0.2,0.2-0.4,0.4-0.4c2.9-1.2,4.8-3.3,5.7-6.3c0-0.1,0-0.1,0-0.1c0,0-0.1-0.1-0.1-0.1h-3.6c-0.2,0-0.4-0.1-0.5-0.2
						c-0.1-0.2-0.2-0.3-0.2-0.6c0-0.2,0.1-0.4,0.2-0.6c0.1-0.2,0.3-0.2,0.5-0.2h3.9c0.1,0,0.2-0.1,0.2-0.2c0.1-0.5,0.2-1.1,0.3-1.7
						c0-0.3,0.1-0.5,0.3-0.7c0.2-0.2,0.4-0.3,0.7-0.3c0.3,0,0.5,0.1,0.6,0.3c0.2,0.2,0.2,0.4,0.2,0.7
						C135.7,50.6,135.6,51.2,135.6,51.7z M138.4,41.1c0-0.1,0-0.1,0-0.1c0,0-0.1-0.1-0.1-0.1h-5.7c0,0-0.1,0-0.1,0.1s0,0.1,0,0.1
						c0.7,1.3,1.7,2.4,3,3.5c0.1,0.1,0.2,0.1,0.3,0C136.9,43.6,137.8,42.4,138.4,41.1z"/>
				</g>
				<g>
					<g>
						<path class="st1" d="M97.6,37.4h-4.7c-0.5,0-0.8,0.2-1.1,0.5s-0.5,0.7-0.5,1.1v8.3c0,2.6-0.1,4.9-0.3,7
							c-0.2,2.1-0.7,4-1.4,5.7c0,0.1-0.1,0.2-0.1,0.3c0,0.1,0,0.2,0.1,0.3c0.1,0.2,0.2,0.4,0.4,0.5c0.2,0.1,0.4,0.1,0.6,0.1
							c0.2,0,0.4-0.2,0.5-0.4c0.9-2.1,1.4-4.9,1.7-8.4c0-0.1,0.1-2.1,0.1-2.1c0-1.4,0.1-2.4,0.1-3.1v-1.5v-2.1v-0.8v-3.5
							c0-0.1,0.1-0.2,0.2-0.2h4.1c0.1,0,0.2,0.1,0.2,0.2v4.4c0,0.1-0.1,0.2-0.2,0.2h-3.3v1.7h3.3c0.1,0,0.2,0.1,0.2,0.2v4.5
							c0,0.1-0.1,0.2-0.2,0.2h-3.3v1.8h3.3c0.1,0,0.2,0.1,0.2,0.2v6.9c0,0.2,0,0.3-0.1,0.4c-0.1,0.1-0.2,0.1-0.4,0.1
							c-1.3,0-1.9,0-1.9,0c-0.2,0-0.4,0.1-0.5,0.3c-0.1,0.2-0.2,0.4-0.1,0.6c0.1,0.3,0.2,0.5,0.4,0.7c0.2,0.2,0.4,0.3,0.7,0.3
							c1.4,0,2.3-0.1,2.7-0.3c0.3-0.2,0.6-0.4,0.7-0.7c0.1-0.3,0.2-0.7,0.2-1.2V39c0-0.5-0.2-0.8-0.5-1.1S98,37.4,97.6,37.4z"/>
					</g>
					<g>
						<path class="st1" d="M114.1,59.8c-1.3-0.8-2.6-1.9-3.8-3.2c-0.1-0.1-0.1-0.2,0-0.3c1.7-2.5,3-5.3,3.7-8.6c0-0.2,0-0.3-0.1-0.5
							c-0.1-0.1-0.2-0.2-0.4-0.3l-0.3-0.1c-0.2-0.1-0.3-0.1-0.5,0c0,0-0.1,0-0.1,0h-9c-0.1,0-0.2-0.1-0.2-0.2v-7.2
							c0-0.1,0.1-0.2,0.2-0.2h7.6c0.1,0,0.2,0.1,0.2,0.2v3.4c0,0.2,0,0.3-0.1,0.3c-0.1,0.1-0.2,0.1-0.4,0.1c-0.2,0-0.5,0-1,0
							c-0.5,0-1.1,0-1.8,0c-0.2,0-0.4,0.1-0.5,0.2c-0.1,0.2-0.1,0.3-0.1,0.5c0.2,0.5,0.6,0.8,1.1,0.8c1.7,0,2.9-0.1,3.4-0.3
							c0.4-0.1,0.7-0.3,0.8-0.6c0.1-0.3,0.2-0.6,0.2-1.2v-3.7c0-0.5-0.2-0.8-0.5-1.1c-0.3-0.3-0.7-0.5-1.1-0.5h-8.4
							c-0.5,0-0.8,0.2-1.1,0.5c-0.3,0.3-0.5,0.7-0.5,1.1v21.7c0,0.2,0.1,0.4,0.3,0.6c0.2,0.2,0.4,0.3,0.6,0.3c0.2,0,0.4-0.1,0.6-0.3
							c0.2-0.2,0.3-0.4,0.3-0.6V48.7c0-0.1,0.1-0.2,0.2-0.2h0.4c0.1,0,0.2,0.1,0.3,0.2c1,3,2.2,5.5,3.6,7.6c0.1,0.1,0.1,0.2,0,0.3
							c-1.1,1.3-2.3,2.3-3.5,3.1c-0.2,0.1-0.3,0.3-0.3,0.5c0,0.2,0,0.4,0.1,0.6c0.2,0.2,0.4,0.3,0.6,0.4c0.2,0.1,0.4,0,0.7-0.1
							c1.2-0.9,2.4-1.9,3.4-3c0.1-0.1,0.2-0.1,0.3,0c1.2,1.4,2.4,2.5,3.7,3.3c0.2,0.1,0.5,0.2,0.7,0.1c0.3-0.1,0.5-0.2,0.6-0.4
							c0.1-0.1,0.2-0.3,0.2-0.5C114.5,60.2,114.3,60,114.1,59.8z M109.2,54.9c0,0-0.1,0.1-0.1,0.1c-0.1,0-0.1,0-0.1-0.1
							c-1.3-1.9-2.3-4-3-6.2c0-0.1,0-0.1,0-0.1c0,0,0.1-0.1,0.1-0.1h5.8c0.1,0,0.1,0,0.1,0.1c0,0,0,0.1,0,0.1
							C111.4,51,110.5,53,109.2,54.9z"/>
					</g>
				</g>
				<g>
					<path class="st1" d="M159.6,55.1V44.8h0v-4.5c0-0.1,0.1-0.2,0.2-0.2h8.8c0.3,0,0.5-0.1,0.6-0.3c0.2-0.2,0.3-0.4,0.3-0.7
						c0-0.3-0.1-0.5-0.3-0.6c-0.2-0.2-0.4-0.3-0.6-0.3h-19.9c-0.3,0-0.5,0.1-0.6,0.3c-0.2,0.2-0.3,0.4-0.3,0.6
						c0,0.3,0.1,0.5,0.3,0.7c0.2,0.2,0.4,0.3,0.6,0.3h8.8c0.1,0,0.2,0.1,0.2,0.2v9.5c0,0.1-0.1,0.2-0.2,0.2h-10.2
						c-0.3,0-0.5,0.1-0.7,0.3c-0.2,0.2-0.3,0.4-0.3,0.7c0,0.3,0.1,0.5,0.3,0.6c0.2,0.2,0.4,0.3,0.7,0.3h10.2c0.1,0,0.2,0.1,0.2,0.2
						v8.7c0,0.3,0.1,0.5,0.3,0.7c0.2,0.2,0.4,0.3,0.7,0.3c0.3,0,0.5-0.1,0.7-0.3c0.2-0.2,0.3-0.4,0.3-0.7L159.6,55.1L159.6,55.1z"/>
				</g>
				<g>
					<path class="st1" d="M170.8,50.3c-0.2-0.2-0.4-0.3-0.7-0.3h-9.6v1.8h9.6c0.3,0,0.5-0.1,0.7-0.3c0.2-0.2,0.3-0.4,0.3-0.6
						C171.1,50.7,171,50.4,170.8,50.3z"/>
				</g>
				<g>
					<g>
						<path class="st1" d="M194.2,50h-14.3c-0.4,0-0.8,0.2-1.1,0.5c-0.3,0.3-0.5,0.7-0.5,1.1v9.1c0,0.3,0.1,0.5,0.3,0.7
							c0.2,0.2,0.4,0.3,0.7,0.3c0.3,0,0.5-0.1,0.6-0.3c0.2-0.2,0.3-0.4,0.3-0.7v-0.2v-2.1v-1.8v-4.7c0-0.1,0.1-0.2,0.2-0.2h13.2
							c0.1,0,0.2,0.1,0.2,0.2v6.5c0,0.1-0.1,0.2-0.2,0.2h-12.5v1.8h12.6c0.1,0,0.1,0,0.1,0.1v0.1c0,0.3,0.1,0.5,0.3,0.7
							c0.2,0.2,0.4,0.3,0.7,0.3s0.5-0.1,0.7-0.3c0.2-0.2,0.3-0.4,0.3-0.7v-9c0-0.5-0.2-0.8-0.5-1.1S194.6,50,194.2,50z"/>
					</g>
					<g>
						<path class="st1" d="M198.9,46.5c-0.7-1-1.6-2-2.8-3.2c-1.1-1.1-2.3-2.2-3.5-3.2c-0.2-0.2-0.5-0.2-0.7-0.3
							c-0.3,0-0.5,0.1-0.7,0.2c-0.2,0.1-0.3,0.3-0.3,0.5c0,0.2,0.1,0.4,0.3,0.5c1,0.9,2,1.8,3,2.8c0,0,0,0.1,0,0.1
							c0,0,0,0.1-0.1,0.1c-4.4,0.2-8.6,0.4-12.6,0.5c-0.1,0-0.1,0-0.1-0.1s0-0.1,0-0.1c1.3-1.9,2.6-4.1,4-6.6c0.1-0.3,0.1-0.5,0-0.8
							c-0.1-0.3-0.3-0.4-0.6-0.5c-0.1-0.1-0.3-0.1-0.4-0.1c-0.1,0-0.3,0-0.5,0.1c-0.3,0.1-0.5,0.3-0.6,0.6c-1.2,2.7-2.7,5.2-4.2,7.4
							c-0.1,0.1-0.2,0.2-0.3,0.2c-1.6,0.1-2.6,0.1-3,0.1c-0.3,0-0.5,0.1-0.6,0.3c-0.2,0.2-0.2,0.4-0.2,0.6c0,0.3,0.1,0.5,0.3,0.7
							c0.2,0.2,0.4,0.2,0.7,0.2c10-0.4,16.6-0.7,19.6-0.9c0.1,0,0.3,0,0.4,0.1c0.5,0.6,0.9,1.2,1.4,1.7c0.2,0.2,0.4,0.4,0.6,0.4
							c0.1,0,0.1,0,0.2,0c0.2,0,0.4-0.1,0.5-0.2c0.2-0.2,0.4-0.4,0.4-0.7c0-0.1,0-0.1,0-0.2C199.1,46.9,199.1,46.7,198.9,46.5z"/>
					</g>
				</g>
				<g>
					<circle class="st1" cx="152.7" cy="45.4" r="1.6"/>
				</g>
				<g>
					<circle class="st1" cx="164.6" cy="45.4" r="1.6"/>
				</g>
			</g>
			<g>
				<g>
					<path class="st1" d="M121.7,17c0.4,0,0.8,0.2,1.1,0.5c0.3,0.3,0.5,0.7,0.5,1.1v5.6c0,0.1,0,0.3,0.1,0.4c1.2,1.9,3.4,2.8,6.5,3
						c1.4,0.1,2.8,0.1,4.3,0.1c2.5,0,5.1-0.1,7.9-0.2c0.2,0,0.4,0.1,0.5,0.2c0.1,0.1,0.1,0.2,0.1,0.3c0,0.1,0,0.1,0,0.2
						c-0.1,0.3-0.2,0.5-0.4,0.6c-0.2,0.2-0.4,0.2-0.7,0.2c-2.5,0.1-4.8,0.1-6.9,0.1c-1.8,0-3.3,0-4.8-0.1c-3.3-0.1-5.7-1.1-7.2-3
						c-0.1-0.1-0.2-0.1-0.3,0c-1.3,1.1-2.4,2-3.3,2.8c-0.2,0.2-0.4,0.2-0.6,0.2c-0.2,0-0.4-0.2-0.5-0.4c-0.1-0.2-0.1-0.3-0.1-0.5
						c0-0.1,0-0.2,0-0.2c0.1-0.3,0.2-0.5,0.4-0.6c1.2-0.9,2.2-1.7,3.1-2.5c0.1-0.1,0.1-0.2,0.1-0.3v-5.6c0-0.1-0.1-0.2-0.2-0.2h-2.7
						c-0.2,0-0.4-0.1-0.6-0.2c-0.2-0.2-0.2-0.3-0.2-0.6c0-0.2,0.1-0.4,0.2-0.6c0.2-0.2,0.4-0.2,0.6-0.2H121.7z"/>
				</g>
				<g>
					<path class="st1" d="M105.6,8.8v2c0,0.3,0.1,0.5,0.3,0.6c0.2,0.2,0.4,0.3,0.6,0.3c0.3,0,0.5-0.1,0.7-0.3
						c0.2-0.2,0.3-0.4,0.3-0.6v-2c0-0.1,0.1-0.2,0.2-0.2h5.6c0.2,0,0.4-0.1,0.6-0.3c0.2-0.2,0.3-0.4,0.3-0.6S114,7.2,113.8,7
						c-0.2-0.2-0.4-0.3-0.6-0.3h-5.6c-0.1,0-0.2-0.1-0.2-0.2V5.1c0-0.3-0.1-0.5-0.3-0.7c-0.2-0.2-0.4-0.3-0.7-0.3
						c-0.3,0-0.5,0.1-0.6,0.3c-0.2,0.2-0.3,0.4-0.3,0.7v1.5c0,0.1-0.1,0.2-0.2,0.2h-6.8c-0.1,0-0.2-0.1-0.2-0.2V5.1
						c0-0.3-0.1-0.5-0.3-0.7c-0.2-0.2-0.4-0.3-0.6-0.3c-0.3,0-0.5,0.1-0.7,0.3c-0.2,0.2-0.3,0.4-0.3,0.7v1.5c0,0.1-0.1,0.2-0.2,0.2
						h-5.6c-0.2,0-0.4,0.1-0.6,0.3c-0.2,0.2-0.3,0.4-0.3,0.6s0.1,0.5,0.3,0.6c0.2,0.2,0.4,0.3,0.6,0.3h5.6c0.1,0,0.2,0.1,0.2,0.2
						v1.8c0,0.3,0.1,0.5,0.3,0.7c0.2,0.2,0.4,0.3,0.7,0.3c0.3,0,0.5-0.1,0.6-0.3c0.2-0.2,0.3-0.4,0.3-0.7V8.8c0-0.1,0.1-0.2,0.2-0.2
						h6.8C105.6,8.6,105.6,8.6,105.6,8.8z"/>
				</g>
				<g>
					<path class="st1" d="M97.5,13.3c-0.3-0.1-0.5-0.1-0.8,0c-0.2,0.1-0.4,0.3-0.6,0.5c-0.8,1.5-1.7,2.9-2.8,4.2
						c-1.1,1.3-2.3,2.5-3.5,3.5c-0.2,0.2-0.3,0.4-0.3,0.6c0,0.2,0.1,0.4,0.3,0.6c0.2,0.2,0.5,0.3,0.8,0.3c0.3,0,0.5-0.1,0.7-0.3
						c0.9-0.9,1.9-1.8,2.8-2.9c0,0,0.1,0,0.1,0c0,0,0,0,0,0.1v8.2c0,0.2,0.1,0.4,0.3,0.6c0.2,0.2,0.4,0.3,0.6,0.3s0.5-0.1,0.6-0.3
						c0.2-0.2,0.3-0.4,0.3-0.6V17.7c0-0.1,0-0.3,0.1-0.4c0.7-0.9,1.3-1.9,1.8-2.9c0.1-0.2,0.1-0.4,0-0.7S97.7,13.4,97.5,13.3z"/>
				</g>
				<g>
					<path class="st1" d="M112.5,16.2c0.2-0.1,0.3-0.3,0.4-0.6c0-0.3-0.1-0.5-0.2-0.6c-0.2-0.2-0.4-0.3-0.7-0.3
						c-0.3,0-0.5,0.1-0.8,0.2c-1.6,1.1-3.7,2.2-6.1,3.3v1.7C108.3,18.5,110.8,17.3,112.5,16.2z"/>
				</g>
				<g>
					<path class="st1" d="M114.3,24c-0.2-0.2-0.4-0.4-0.6-0.5c-0.2-0.1-0.4-0.1-0.6,0c-0.2,0.1-0.3,0.2-0.3,0.4
						c-0.1,1.4-0.2,2.3-0.4,2.7c-0.2,0.4-0.6,0.7-1.2,0.7h-5.3c-0.7,0-1.2-0.1-1.4-0.3c-0.2-0.2-0.3-0.6-0.3-1.1v-3.7v-1.8v-2.1
						v-2.9v-0.9c0-0.3-0.1-0.5-0.3-0.7c-0.2-0.2-0.4-0.3-0.6-0.3c-0.2,0-0.5,0.1-0.6,0.3c-0.2,0.2-0.3,0.4-0.3,0.7V26
						c0,1.2,0.2,2.1,0.7,2.5c0.5,0.4,1.4,0.6,2.7,0.6h5.5c1.1,0,1.9-0.3,2.4-0.9c0.6-0.8,0.9-2,0.9-3.5
						C114.5,24.4,114.4,24.2,114.3,24z"/>
				</g>
				<g>
					<path class="st1" d="M141.7,23.2h-7.2c-0.1,0-0.2-0.1-0.2-0.2v-1.3c0-0.1,0.1-0.2,0.2-0.2h4.7c0.5,0,0.8-0.2,1.1-0.5
						c0.3-0.3,0.5-0.7,0.5-1.1v-4.3c0-0.4-0.2-0.8-0.5-1.1c-0.3-0.3-0.7-0.5-1.1-0.5h-4.7c-0.1,0-0.2-0.1-0.2-0.2v-1.2
						c0-0.1,0.1-0.2,0.2-0.2h6.7c0.2,0,0.3-0.1,0.5-0.2c0.1-0.1,0.2-0.3,0.2-0.5c0-0.2-0.1-0.3-0.2-0.5c-0.1-0.1-0.3-0.2-0.5-0.2
						h-6.7c-0.1,0-0.2-0.1-0.2-0.2V10c0-0.1,0.1-0.2,0.2-0.2c0.4,0,0.7-0.1,1-0.4s0.4-0.6,0.4-1V7.9c0-0.1,0.1-0.2,0.2-0.2h5.6
						c0.2,0,0.4-0.1,0.6-0.2c0.2-0.2,0.2-0.3,0.2-0.6c0-0.2-0.1-0.4-0.2-0.6c-0.2-0.2-0.4-0.2-0.6-0.2h-5.6c-0.1,0-0.2-0.1-0.2-0.2
						V5.1c0-0.3-0.1-0.5-0.3-0.6c-0.2-0.2-0.4-0.3-0.7-0.3s-0.5,0.1-0.7,0.3c-0.2,0.2-0.3,0.4-0.3,0.6v0.8c0,0.1-0.1,0.2-0.2,0.2
						h-7.2c-0.1,0-0.2-0.1-0.2-0.2V5.1c0-0.3-0.1-0.5-0.3-0.6c-0.2-0.2-0.4-0.3-0.6-0.3c-0.3,0-0.5,0.1-0.7,0.3
						c-0.2,0.2-0.3,0.4-0.3,0.6v0.8c0,0.1-0.1,0.2-0.2,0.2h-5.5c-0.2,0-0.4,0.1-0.6,0.2c-0.2,0.2-0.2,0.3-0.2,0.6
						c0,0.2,0.1,0.4,0.2,0.6c0.2,0.2,0.4,0.2,0.6,0.2h5.5c0.1,0,0.2,0.1,0.2,0.2v1.1c0,0.3,0.1,0.5,0.3,0.7c0.2,0.2,0.4,0.3,0.7,0.3
						c0.3,0,0.5-0.1,0.6-0.3c0.2-0.2,0.3-0.4,0.3-0.7V7.9c0-0.1,0.1-0.2,0.2-0.2h7.2c0.1,0,0.2,0.1,0.2,0.2v1.2
						c0,0.1-0.1,0.2-0.2,0.2c-0.4,0-0.7,0.1-0.9,0.4s-0.4,0.6-0.4,0.9v0.2c0,0.1-0.1,0.2-0.2,0.2H126c-0.2,0-0.4,0.1-0.5,0.2
						c-0.1,0.1-0.2,0.3-0.2,0.5c0,0.2,0.1,0.4,0.2,0.5c0.1,0.1,0.3,0.2,0.5,0.2h6.4c0.1,0,0.2,0.1,0.2,0.2v1.2
						c0,0.1-0.1,0.2-0.2,0.2h-4.5c-0.4,0-0.8,0.2-1.1,0.5s-0.5,0.7-0.5,1.1v4.3c0,0.4,0.2,0.8,0.5,1.1c0.3,0.3,0.7,0.5,1.1,0.5h4.5
						c0.1,0,0.2,0.1,0.2,0.2V23c0,0.1-0.1,0.2-0.2,0.2h-7c-0.2,0-0.4,0.1-0.5,0.2c-0.1,0.1-0.2,0.3-0.2,0.5s0.1,0.4,0.2,0.5
						c0.1,0.1,0.3,0.2,0.5,0.2h7c0.1,0,0.2,0.1,0.2,0.2v1.1c0,0.2,0.1,0.4,0.3,0.6c0.2,0.2,0.4,0.2,0.6,0.2s0.4-0.1,0.6-0.2
						c0.2-0.2,0.2-0.4,0.2-0.6v-1.1c0-0.1,0.1-0.2,0.2-0.2h7.2c0.2,0,0.4-0.1,0.5-0.2c0.1-0.1,0.2-0.3,0.2-0.5s-0.1-0.4-0.2-0.5
						C142.1,23.2,141.9,23.2,141.7,23.2z M134.3,19.6v-1v-1.7v-1v-0.4c0-0.1,0.1-0.2,0.2-0.2h4.4c0.1,0,0.2,0.1,0.2,0.2v1.4
						c0,0.1-0.1,0.2-0.2,0.2h-3.7v1.2h3.7c0.1,0,0.2,0.1,0.2,0.2V20c0,0.1-0.1,0.2-0.2,0.2h-4.4c-0.1,0-0.2-0.1-0.2-0.2V19.6z
						 M132.6,20c0,0.1-0.1,0.2-0.2,0.2h-4.2c-0.1,0-0.2-0.1-0.2-0.2v-1.5c0-0.1,0.1-0.2,0.2-0.2h4.2c0.1,0,0.2,0.1,0.2,0.2V20z
						 M132.6,16.9c0,0.1-0.1,0.2-0.2,0.2h-4.2c-0.1,0-0.2-0.1-0.2-0.2v-1.4c0-0.1,0.1-0.2,0.2-0.2h4.2c0.1,0,0.2,0.1,0.2,0.2V16.9z"
						/>
				</g>
				<g>
					<g>
						<path class="st1" d="M153.6,8.8h1.8c0.2,0,0.4-0.1,0.6-0.2c0.2-0.2,0.2-0.3,0.2-0.6c0-0.2-0.1-0.4-0.2-0.6
							c-0.2-0.2-0.3-0.2-0.6-0.2h-1.8V8.8z"/>
					</g>
					<g>
						<path class="st1" d="M169.5,11.3c0-0.1,0.1-0.2,0.2-0.2h0.7c0.2,0,0.4-0.1,0.6-0.3c0.2-0.2,0.3-0.4,0.3-0.6
							c0-0.2-0.1-0.4-0.3-0.6c-0.2-0.2-0.4-0.3-0.6-0.3h-7.2c0,0-0.1,0-0.1-0.1c0,0,0-0.1,0-0.1c0.3-1.2,0.6-2.5,0.9-3.7
							c0.1-0.3,0-0.5-0.1-0.7c-0.1-0.2-0.4-0.3-0.6-0.4c-0.3,0-0.5,0-0.7,0.2c-0.2,0.2-0.3,0.4-0.4,0.6c-0.9,4.7-2.3,8.3-4.1,10.9
							c-0.1,0.1-0.1,0.1-0.2,0l-0.6-0.4c-0.2-0.1-0.4-0.2-0.6-0.1c0,0-0.1,0-0.1,0h-3c0,0-0.1,0-0.1-0.1c0,0,0-0.1,0-0.1
							c0.5-0.5,1.1-1.2,1.6-1.9c0.1-0.1,0.2-0.2,0.4-0.2h3c0.2,0,0.4-0.1,0.6-0.2c0.2-0.2,0.2-0.4,0.2-0.6c0-0.2-0.1-0.4-0.2-0.6
							c-0.2-0.2-0.4-0.2-0.6-0.2h-1.8c-0.1,0-0.1,0-0.1-0.1c0,0,0-0.1,0-0.1c1.1-1.7,2.1-3.4,2.9-5.3c0.1-0.2,0.1-0.4,0-0.7
							c-0.1-0.2-0.3-0.4-0.5-0.4c-0.2-0.1-0.5-0.1-0.7,0.1c-0.2,0.1-0.4,0.3-0.5,0.5c-0.9,2.1-2,4.1-3.3,5.8
							c-0.1,0.1-0.2,0.2-0.3,0.2h-1.4c-0.1,0-0.2-0.1-0.2-0.2V9c0,0,0,0,0,0V7c0,0,0,0,0,0V5c0-0.2-0.1-0.4-0.3-0.6
							c-0.2-0.2-0.4-0.2-0.6-0.2c-0.2,0-0.4,0.1-0.6,0.2c-0.2,0.2-0.3,0.4-0.3,0.6v2c0,0.1-0.1,0.2-0.2,0.2H148
							c-0.2,0-0.4,0.1-0.6,0.2c-0.2,0.2-0.2,0.3-0.2,0.6c0,0.2,0.1,0.4,0.2,0.6c0.2,0.2,0.3,0.2,0.6,0.2h2.8c0.1,0,0.2,0.1,0.2,0.2
							v2.5c0,0.1-0.1,0.2-0.2,0.2h-3.9c-0.2,0-0.4,0.1-0.6,0.2c-0.2,0.2-0.2,0.4-0.2,0.6c0,0.2,0.1,0.4,0.2,0.6
							c0.2,0.2,0.4,0.2,0.6,0.2h6c0,0,0.1,0,0.1,0.1c0,0,0,0.1,0,0.1c-0.6,0.7-1.2,1.3-1.9,1.9c-0.1,0.1-0.2,0.1-0.4,0.1H149
							c-0.2,0-0.4,0.1-0.5,0.2c-0.1,0.1-0.2,0.3-0.2,0.5v0.1c0,0.2,0.1,0.3,0.2,0.5c0.1,0.1,0.3,0.2,0.5,0.2c0,0,0,0,0,0
							c0,0,0,0,0,0c-0.8,0.6-1.7,1.2-2.7,1.7c-0.2,0.1-0.4,0.3-0.4,0.6c0,0.2,0.1,0.4,0.2,0.5c0.2,0.2,0.4,0.3,0.7,0.4
							c0.3,0.1,0.5,0,0.8-0.1c1.4-0.9,2.8-1.9,4.1-3c0.1-0.1,0.2-0.1,0.4-0.1h3c0,0,0.1,0,0.1,0.1c0,0,0,0.1,0,0.1
							c-0.7,0.7-1.4,1.4-2.2,2c-0.1,0-0.1,0.1-0.2,0.1c-0.2,0-0.4,0.1-0.6,0.2c-0.2,0.2-0.2,0.3-0.2,0.6v1.5c0,0.1-0.1,0.2-0.2,0.2
							c-1.8,0.2-3.5,0.4-5,0.5c-0.2,0-0.4,0.1-0.6,0.3c-0.1,0.2-0.2,0.4-0.2,0.6c0,0.2,0.1,0.4,0.3,0.6c0.2,0.1,0.4,0.2,0.6,0.2
							c1.4-0.1,3-0.3,4.8-0.5c0.1,0,0.2,0,0.2,0.2v3.9c0,0.1,0,0.2-0.1,0.3c-0.1,0.1-0.2,0.1-0.4,0.1c-0.2,0-0.5,0-1.1,0
							c-0.3,0-0.7,0-1.1,0c-0.2,0-0.3,0.1-0.4,0.2c-0.1,0.2-0.1,0.3-0.1,0.5c0.1,0.3,0.2,0.5,0.4,0.6c0.2,0.2,0.4,0.2,0.7,0.2
							c1.4,0,2.3-0.1,2.8-0.2c0.4-0.2,0.6-0.4,0.7-0.6c0.1-0.3,0.2-0.6,0.2-1.1v-4.1c0-0.1,0.1-0.2,0.2-0.2l4.8-0.5
							c0.2,0,0.4-0.1,0.6-0.3c0.2-0.2,0.2-0.4,0.2-0.6s-0.1-0.4-0.2-0.5c-0.2-0.1-0.3-0.2-0.5-0.2l-4.8,0.5c-0.1,0-0.2,0-0.2-0.2
							v-0.9c0-0.1,0.1-0.2,0.2-0.3c1.5-1.1,2.8-2.3,3.9-3.6c0.1-0.1,0.2-0.1,0.3,0c0,0,0,0,0.1,0c0.3,0.2,0.6,0.3,0.9,0.3
							c0.1,0,0.1,0,0.2,0c0.4-0.1,0.7-0.3,1-0.6c0.4-0.6,0.7-1.3,1-2c0,0,0,0,0.1,0c0,0,0.1,0,0.1,0.1c0.7,3,1.5,5.6,2.4,7.7
							c0.1,0.1,0.1,0.2,0,0.4c-1.4,2.1-3.3,3.8-5.7,5.1c-0.2,0.1-0.4,0.3-0.4,0.5c-0.1,0.3,0,0.5,0.1,0.7c0.2,0.2,0.4,0.4,0.6,0.5
							c0.3,0.1,0.5,0,0.7-0.1c2.3-1.3,4.1-2.9,5.6-4.9c0.1-0.1,0.1-0.1,0.2,0c1.2,2,2.6,3.5,4.3,4.7c0.2,0.2,0.5,0.2,0.8,0.1
							c0.3-0.1,0.5-0.2,0.7-0.4c0.2-0.2,0.3-0.4,0.2-0.7s-0.2-0.5-0.4-0.6c-1.7-1.1-3.2-2.8-4.5-4.9c-0.1-0.1-0.1-0.2,0-0.4
							C167.7,19.4,168.8,15.8,169.5,11.3z M165.2,20.1C165.1,20.1,165.1,20.2,165.2,20.1c-0.1,0.1-0.2,0-0.2,0
							c-1.1-2.5-1.9-5.5-2.5-8.8c0,0,0-0.1,0-0.1c0,0,0-0.1,0.1-0.1h4.9c0.1,0,0.2,0.1,0.2,0.2C167.1,14.8,166.3,17.8,165.2,20.1z"
							/>
					</g>
				</g>
				<g>
					<path class="st1" d="M226.4,11.3c0-0.1,0.1-0.2,0.2-0.2h0.6c0.2,0,0.4-0.1,0.6-0.3c0.2-0.2,0.3-0.4,0.3-0.6s-0.1-0.5-0.3-0.6
						c-0.2-0.2-0.4-0.3-0.6-0.3h-6.3c-0.1,0-0.2-0.1-0.2-0.2c0.3-1.2,0.5-2.5,0.7-3.8c0-0.3,0-0.5-0.2-0.7c-0.1-0.2-0.3-0.3-0.6-0.3
						c-0.2,0-0.5,0-0.7,0.2c-0.2,0.1-0.3,0.3-0.4,0.6c-0.7,4.7-1.8,8.4-3.3,10.9c0,0,0,0-0.1,0c0,0,0,0,0,0c0-0.4-0.1-0.7-0.4-0.9
						c-0.3-0.3-0.6-0.4-0.9-0.4h-4c-0.1,0-0.2-0.1-0.2-0.2v-1c0-0.1,0.1-0.2,0.2-0.2h3c0.5,0,0.8-0.2,1.1-0.5
						c0.3-0.3,0.5-0.7,0.5-1.1v-1.2c0-0.1,0.1-0.2,0.2-0.2h1.1c0.2,0,0.4-0.1,0.5-0.2c0.1-0.1,0.2-0.3,0.2-0.5
						c0-0.2-0.1-0.4-0.2-0.5c-0.1-0.1-0.3-0.2-0.5-0.2h-1.1c-0.1,0-0.2-0.1-0.2-0.2V7.6c0-0.4-0.2-0.8-0.5-1.1
						C214.9,6.1,214.5,6,214,6h-3c-0.1,0-0.2-0.1-0.2-0.2V5c0-0.2-0.1-0.4-0.2-0.6c-0.2-0.2-0.3-0.2-0.6-0.2c-0.2,0-0.4,0.1-0.6,0.2
						c-0.2,0.2-0.2,0.3-0.2,0.6v0.8c0,0.1-0.1,0.2-0.2,0.2h-2.7c-0.5,0-0.8,0.2-1.1,0.5c-0.3,0.3-0.5,0.7-0.5,1.1v1.2
						c0,0.1-0.1,0.2-0.2,0.2h-1c-0.2,0-0.4,0.1-0.5,0.2c-0.1,0.1-0.2,0.3-0.2,0.5c0,0.2,0.1,0.4,0.2,0.5c0.1,0.1,0.3,0.2,0.5,0.2h1
						c0.1,0,0.2,0.1,0.2,0.2v1.2c0,0.4,0.2,0.8,0.5,1.1c0.3,0.3,0.7,0.5,1.1,0.5h2.7c0.1,0,0.2,0.1,0.2,0.2v1c0,0.1-0.1,0.2-0.2,0.2
						h-3.5c-0.4,0-0.8,0.2-1.1,0.5c-0.3,0.3-0.5,0.7-0.5,1.1v1.3c0,0.4,0.2,0.8,0.5,1.1c0.3,0.3,0.7,0.5,1.1,0.5h2.3
						c0.1,0,0.1,0,0.1,0.1s0,0.1,0,0.1c-0.2,0.3-0.4,0.8-0.8,1.5c-0.1,0.1-0.2,0.2-0.3,0.2c-1,0-2.1,0-3.4,0c-0.2,0-0.4,0.1-0.5,0.2
						c-0.1,0.1-0.2,0.3-0.2,0.5c0,0.2,0.1,0.4,0.2,0.5c0.1,0.1,0.3,0.2,0.5,0.2l2.6,0c0,0,0.1,0,0.1,0.1c0,0,0,0.1,0,0.1
						c-0.5,0.8-0.9,1.5-1.3,2.2c-0.1,0.2-0.1,0.3,0,0.5c0.1,0.2,0.2,0.3,0.4,0.4c0.2,0.1,0.4,0.1,0.7,0c0.2-0.1,0.4-0.2,0.5-0.4
						l0.1-0.1c0-0.1,0.1-0.1,0.2-0.1c0.8,0.3,1.7,0.7,2.7,1.1c0,0,0.1,0,0.1,0.1c0,0,0,0.1-0.1,0.1c-1.3,0.7-3,1.2-5.2,1.5
						c-0.2,0-0.3,0.1-0.4,0.3c-0.1,0.2-0.1,0.3,0,0.5c0.1,0.2,0.3,0.4,0.5,0.5c0.1,0.1,0.3,0.1,0.4,0.1c0.1,0,0.1,0,0.2,0
						c2.6-0.5,4.6-1.2,6.1-2.1c0.1-0.1,0.2-0.1,0.4,0c0.8,0.4,1.6,0.9,2.2,1.3c0.2,0.1,0.4,0.2,0.7,0.2c0.2,0,0.4-0.1,0.6-0.3
						c0.2-0.1,0.2-0.3,0.2-0.5c0-0.2-0.1-0.4-0.3-0.5c-0.6-0.4-1.3-0.8-2.1-1.2c-0.1-0.1-0.1-0.1,0-0.2c0.9-0.9,1.6-2.1,2-3.4
						c0.1-0.1,0.1-0.2,0.3-0.2l2-0.1c0.2,0,0.4-0.1,0.5-0.2c0.1-0.1,0.2-0.3,0.2-0.5c0-0.2-0.1-0.3-0.2-0.5
						c-0.1-0.1-0.3-0.2-0.5-0.2c-3.5,0.1-6.2,0.1-8,0.1c-0.1,0-0.1,0-0.1-0.1c0,0,0-0.1,0-0.1c0.3-0.5,0.6-1,0.8-1.5
						c0.1-0.1,0.2-0.2,0.3-0.2h4.7c0.4,0,0.8-0.2,1.1-0.5c0.3-0.3,0.5-0.7,0.5-1.1V17c0,0,0-0.1,0-0.1c0,0,0.1,0,0.1,0
						c0.2,0.2,0.5,0.3,0.7,0.3c0.1,0,0.1,0,0.2,0c0.3,0,0.6-0.2,0.8-0.5c0.3-0.6,0.6-1.2,0.8-1.9c0,0,0,0,0.1,0s0,0,0.1,0
						c0.6,2.9,1.3,5.4,2.1,7.4c0.1,0.1,0,0.2,0,0.4c-1.2,2-2.7,3.7-4.6,5c-0.2,0.1-0.3,0.3-0.4,0.6c0,0.2,0,0.5,0.2,0.7
						c0.1,0.2,0.3,0.3,0.6,0.4c0.2,0,0.5,0,0.7-0.1c1.8-1.3,3.2-2.8,4.4-4.6c0-0.1,0-0.1,0.1-0.1c0,0,0.1,0,0.1,0.1
						c1.1,1.9,2.3,3.4,3.8,4.5c0.2,0.2,0.5,0.2,0.7,0.2c0.3,0,0.5-0.2,0.7-0.4c0.2-0.2,0.2-0.4,0.2-0.6c0-0.2-0.1-0.4-0.3-0.6
						c-1.5-1.2-2.9-2.8-4-4.9c-0.1-0.1-0.1-0.2,0-0.4C224.7,19.5,225.7,15.8,226.4,11.3z M210.8,11.6v-1.1V8.8v-1V7.5
						c0-0.1,0.1-0.2,0.2-0.2h2.8c0.1,0,0.2,0.1,0.2,0.2v1.3c0,0.1-0.1,0.2-0.2,0.2h-2v1.3h2c0.1,0,0.2,0.1,0.2,0.2v1.3
						c0,0.1-0.1,0.2-0.2,0.2H211c-0.1,0-0.2-0.1-0.2-0.2V11.6z M212.9,22.4C212.9,22.4,212.9,22.5,212.9,22.4
						c0.1,0.1,0.1,0.1,0.1,0.2c-0.4,1.1-1,2-1.8,2.7c-0.1,0.1-0.2,0.1-0.4,0.1c-1.3-0.5-2.4-1-3.4-1.3c-0.1-0.1-0.2-0.1-0.1-0.2
						c0.3-0.5,0.5-0.8,0.6-1.1c0.1-0.1,0.2-0.2,0.3-0.2L212.9,22.4z M209.2,17.7c0,0.1-0.1,0.2-0.2,0.2h-3.3c-0.1,0-0.2-0.1-0.2-0.2
						v-1.5c0-0.1,0.1-0.2,0.2-0.2h3.3c0.1,0,0.2,0.1,0.2,0.2V17.7z M209.2,11.8c0,0.1-0.1,0.2-0.2,0.2h-2.6c-0.1,0-0.2-0.1-0.2-0.2
						v-1.3c0-0.1,0.1-0.2,0.2-0.2h2.6c0.1,0,0.2,0.1,0.2,0.2V11.8z M209.2,8.8c0,0.1-0.1,0.2-0.2,0.2h-2.6c-0.1,0-0.2-0.1-0.2-0.2
						V7.5c0-0.1,0.1-0.2,0.2-0.2h2.6c0.1,0,0.2,0.1,0.2,0.2V8.8z M214.7,17.7c0,0.1-0.1,0.2-0.2,0.2H211c-0.1,0-0.2-0.1-0.2-0.2
						v-1.5c0-0.1,0.1-0.2,0.2-0.2h3.4c0.1,0,0.2,0.1,0.2,0.2V17.7z M222.4,20.2C222.4,20.2,222.4,20.2,222.4,20.2
						c-0.1,0.1-0.1,0-0.2,0c-0.9-2.4-1.6-5.2-2.1-8.5c0-0.1,0-0.2,0-0.4c0-0.1,0.1-0.2,0.2-0.2h4c0.1,0,0.2,0.1,0.2,0.2
						C224.1,14.9,223.4,17.8,222.4,20.2z"/>
				</g>
				<g>
					<g>
						<path class="st1" d="M263.9,20h7.6c0.4,0,0.8-0.2,1.1-0.5c0.3-0.3,0.5-0.7,0.5-1.1v-4.3c0-0.4-0.2-0.8-0.5-1.1
							c-0.3-0.3-0.7-0.5-1.1-0.5h-7.7c-0.4,0-0.8,0.2-1.1,0.5c-0.3,0.3-0.5,0.7-0.5,1.1v3c0,4.3-0.8,7.6-2.4,10
							c-0.1,0.1-0.2,0.3-0.2,0.5c0,0,0,0.1,0,0.1c0,0.2,0.1,0.4,0.3,0.5c0.2,0.2,0.4,0.2,0.6,0.2c0.2,0,0.4-0.1,0.5-0.3
							c1.5-2,2.4-4.7,2.7-8C263.7,20.1,263.8,20,263.9,20z M263.8,17.1L263.8,17.1v-1.7v-1v-0.3c0-0.1,0.1-0.2,0.2-0.2h7.2
							c0.1,0,0.2,0.1,0.2,0.2v1.2c0,0.1-0.1,0.2-0.2,0.2h-6.4v1.3h6.4c0.1,0,0.2,0.1,0.2,0.2v1.3c0,0.1-0.1,0.2-0.2,0.2H264
							c-0.1,0-0.2-0.1-0.2-0.2C263.8,18.1,263.8,17.7,263.8,17.1z"/>
					</g>
					<g>
						<path class="st1" d="M271.9,21.8h-6.8c-0.5,0-0.8,0.2-1.1,0.5c-0.3,0.3-0.5,0.7-0.5,1.1v5.2c0,0.2,0.1,0.4,0.2,0.6
							c0.2,0.2,0.3,0.2,0.6,0.2c0.2,0,0.4-0.1,0.6-0.2c0.2-0.2,0.2-0.4,0.2-0.6v-0.2v-1.8v-1.3v-1.8c0-0.1,0.1-0.2,0.2-0.2h6.3
							c0.1,0,0.2,0.1,0.2,0.2v3.1c0,0.1-0.1,0.2-0.2,0.2h-5.5v1.5h5.6c0.1,0,0.1,0,0.1,0.1v0c0,0.2,0.1,0.4,0.2,0.6
							c0.2,0.2,0.4,0.2,0.6,0.2s0.4-0.1,0.6-0.2c0.2-0.2,0.2-0.4,0.2-0.6v-5c0-0.4-0.2-0.8-0.5-1.1C272.7,22,272.3,21.8,271.9,21.8z
							"/>
					</g>
					<g>
						<path class="st1" d="M276.3,7.5c-0.2,0-0.5,0.1-0.6,0.3c-0.2,0.2-0.3,0.4-0.3,0.6v13.4c0,0.3,0.1,0.5,0.3,0.6
							c0.2,0.2,0.4,0.3,0.6,0.3c0.2,0,0.5-0.1,0.6-0.3c0.2-0.2,0.3-0.4,0.3-0.6V8.4c0-0.3-0.1-0.5-0.3-0.6
							C276.8,7.6,276.6,7.5,276.3,7.5z"/>
					</g>
					<g>
						<path class="st1" d="M269,5c-0.4-0.3-0.9-0.5-1.5-0.5s-1,0.2-1.3,0.7c-1.6,2.4-3.7,4.4-6.2,6c-0.2,0.1-0.3,0.3-0.3,0.5
							c0,0.2,0.1,0.4,0.2,0.5c0.2,0.2,0.4,0.3,0.6,0.4s0.5,0,0.7-0.1c1.2-0.8,2.2-1.7,3.3-2.7c0.1,0,0.1,0,0.1,0.1
							c0,0.3,0.1,0.6,0.3,0.8c0.2,0.2,0.5,0.3,0.8,0.3h5c0.2,0,0.3-0.1,0.5-0.2c0.1-0.1,0.2-0.3,0.2-0.5c0-0.2-0.1-0.4-0.2-0.5
							c-0.1-0.1-0.3-0.2-0.5-0.2h-5.8c0,0-0.1,0-0.1-0.1c0,0,0-0.1,0-0.1c1-1,2-2.1,2.8-3.1c0.1-0.1,0.2-0.1,0.3-0.1
							c1.5,1.2,3.1,2.6,4.7,4.3c0.2,0.2,0.4,0.3,0.7,0.3c0.3,0,0.5-0.1,0.6-0.3c0.2-0.2,0.2-0.4,0.2-0.7s-0.1-0.5-0.3-0.7
							C272.6,7.9,270.9,6.5,269,5z"/>
					</g>
					<g>
						<path class="st1" d="M283.2,5c-0.2-0.2-0.4-0.3-0.6-0.3c-0.2,0-0.5,0.1-0.6,0.3c-0.2,0.2-0.3,0.4-0.3,0.7V27
							c0,0.2-0.1,0.4-0.2,0.5c-0.1,0.1-0.3,0.2-0.5,0.2c-1.8,0-2.9,0-3.1,0c-0.2,0-0.4,0.1-0.5,0.3c-0.1,0.1-0.1,0.2-0.1,0.4
							c0,0.1,0,0.2,0.1,0.2c0.1,0.3,0.3,0.5,0.5,0.7c0.2,0.2,0.5,0.3,0.8,0.3h0c1.9,0,3.1-0.1,3.7-0.3c0.4-0.2,0.7-0.4,0.9-0.7
							c0.2-0.3,0.3-0.8,0.3-1.4V5.7C283.5,5.4,283.4,5.2,283.2,5z"/>
					</g>
				</g>
				<g>
					<g>
						<path class="st1" d="M312.5,26.5c-0.2-0.2-0.4-0.3-0.7-0.3h-10.3c-0.1,0-0.2-0.1-0.2-0.2v-6.9c0,0,0,0,0,0v-2.1c0,0,0,0,0,0
							V11c0,0,0,0,0,0V8.8c0,0,0,0,0,0V4.6c0-0.3-0.1-0.5-0.3-0.7c-0.2-0.2-0.4-0.3-0.7-0.3c-0.3,0-0.5,0.1-0.7,0.3
							c-0.2,0.2-0.3,0.4-0.3,0.7v4.3c0,0.1-0.1,0.2-0.2,0.2h-5.5c0,0-0.1,0-0.1-0.1c0,0,0-0.1,0-0.1c0.4-1,0.8-2.2,1.2-3.5
							c0.1-0.2,0-0.5-0.1-0.7c-0.1-0.2-0.3-0.4-0.6-0.4c-0.3-0.1-0.5,0-0.7,0.1c-0.2,0.1-0.4,0.3-0.5,0.6c-1.1,3.6-2.5,6.5-4.3,8.6
							c-0.2,0.2-0.2,0.4-0.2,0.7c0,0.3,0.2,0.5,0.4,0.6c0.2,0.1,0.5,0.2,0.8,0.2c0.3,0,0.5-0.1,0.7-0.4c0.8-1.1,1.6-2.3,2.2-3.7
							c0.1-0.1,0.1-0.2,0.3-0.2h6.3c0.1,0,0.2,0.1,0.2,0.2v5.9c0,0.1-0.1,0.2-0.2,0.2H292c-0.2,0-0.4,0.1-0.6,0.3
							c-0.2,0.2-0.3,0.4-0.3,0.6c0,0.2,0.1,0.5,0.3,0.6c0.2,0.2,0.4,0.3,0.6,0.3h7.3c0.1,0,0.2,0.1,0.2,0.2V26
							c0,0.1-0.1,0.2-0.2,0.2H289c-0.2,0-0.4,0.1-0.6,0.3c-0.2,0.2-0.3,0.4-0.3,0.6c0,0.2,0.1,0.5,0.3,0.6c0.2,0.2,0.4,0.3,0.6,0.3
							h22.8c0.3,0,0.5-0.1,0.7-0.3c0.2-0.2,0.3-0.4,0.3-0.6C312.8,26.9,312.7,26.7,312.5,26.5z"/>
					</g>
					<g>
						<path class="st1" d="M302.4,10.8h8.2c0.3,0,0.5-0.1,0.6-0.3c0.2-0.2,0.3-0.4,0.3-0.6c0-0.3-0.1-0.5-0.3-0.6
							C311,9.1,310.8,9,310.6,9h-8.2V10.8z"/>
					</g>
					<g>
						<path class="st1" d="M310.2,18.6c0.2-0.2,0.3-0.4,0.3-0.6c0-0.2-0.1-0.5-0.3-0.6c-0.2-0.2-0.4-0.3-0.6-0.3h-7.2v1.8h7.2
							C309.8,18.9,310,18.8,310.2,18.6z"/>
					</g>
				</g>
				<g>
					<g>
						<path class="st1" d="M193.7,15.9h-13.2c-0.4,0-0.8,0.2-1.1,0.5c-0.3,0.3-0.5,0.7-0.5,1.1v11.1c0,0.3,0.1,0.5,0.3,0.7
							c0.2,0.2,0.4,0.3,0.7,0.3c0.3,0,0.5-0.1,0.7-0.3c0.2-0.2,0.3-0.4,0.3-0.7v-2.5v-1v-1.8v-1.9v-1.8v-0.7v-1.1
							c0-0.1,0.1-0.2,0.2-0.2h12.3c0.1,0,0.2,0.1,0.2,0.2v1.9c0,0.1-0.1,0.2-0.2,0.2h-11.5v1.4h11.5c0.1,0,0.2,0.1,0.2,0.2v1.9
							c0,0.1-0.1,0.2-0.2,0.2h-11.5v1.4h11.5c0.1,0,0.2,0.1,0.2,0.2v2.4c0,0.2,0,0.3-0.1,0.4c-0.1,0.1-0.2,0.1-0.4,0.1
							c-0.2,0-0.6,0-1,0c-0.5,0-1.1,0-1.9,0c-0.2,0-0.3,0.1-0.4,0.2c-0.1,0.2-0.1,0.3,0,0.5c0.2,0.5,0.6,0.8,1.1,0.8
							c1.9,0,3.1-0.1,3.6-0.2c0.4-0.1,0.7-0.3,0.8-0.6c0.2-0.3,0.2-0.7,0.2-1.2v-10c0-0.4-0.2-0.8-0.5-1.1
							C194.5,16.1,194.2,15.9,193.7,15.9z"/>
					</g>
					<g>
						<path class="st1" d="M184.6,8.8c0.1-0.1,0.2-0.2,0.3-0.2h13.4c0.2,0,0.4-0.1,0.6-0.2c0.2-0.2,0.2-0.4,0.2-0.6
							c0-0.2-0.1-0.4-0.2-0.6C198.7,7,198.5,7,198.3,7h-10.2c0,0,0,0,0,0h-2.2c0,0,0,0,0,0h-10.1c-0.2,0-0.4,0.1-0.6,0.2
							c-0.2,0.2-0.2,0.4-0.2,0.6c0,0.2,0.1,0.4,0.2,0.6c0.2,0.2,0.4,0.2,0.6,0.2h6.4c0.1,0,0.1,0,0.1,0.1c0,0,0,0.1,0,0.1
							c-0.7,1.2-1.5,2.4-2.3,3.3c-0.1,0.1-0.2,0.2-0.3,0.2l-2.7,0.1c-0.2,0-0.4,0.1-0.6,0.3c-0.2,0.2-0.2,0.4-0.2,0.6
							c0,0.3,0.1,0.5,0.3,0.6c0.2,0.2,0.4,0.2,0.6,0.2c4.1-0.1,10.2-0.3,18.2-0.5c0.1,0,0.2,0,0.4,0.1c0.4,0.4,0.8,0.7,1.1,1
							c0.2,0.2,0.4,0.3,0.7,0.3c0,0,0.1,0,0.1,0c0.2,0,0.4-0.1,0.6-0.2c0.2-0.2,0.3-0.4,0.3-0.6c0-0.3-0.1-0.5-0.2-0.6
							c-1.5-1.4-3.4-2.9-5.7-4.4C192.3,9.1,192,9,191.8,9c-0.2,0-0.5,0.1-0.7,0.2c-0.2,0.1-0.2,0.3-0.2,0.5c0,0.2,0.1,0.4,0.2,0.5
							c0.7,0.5,1.5,1.1,2.4,1.8c0,0,0,0,0,0.1c0,0,0,0.1-0.1,0.1c-5.2,0.1-9,0.2-11.3,0.2c0,0-0.1,0-0.1-0.1s0-0.1,0-0.1
							C182.8,11.2,183.7,10.1,184.6,8.8z"/>
					</g>
				</g>
				<g>
					<circle class="st1" cx="120.6" cy="13.4" r="1.6"/>
				</g>
				<g>
					<circle class="st1" cx="187" cy="4.2" r="1.6"/>
				</g>
				<g>
					<g>
						<path class="st1" d="M239.2,11.2c0.2,0.2,0.4,0.3,0.6,0.3h15.1c0.2,0,0.4-0.1,0.6-0.3c0.2-0.2,0.3-0.4,0.3-0.6
							c0-0.2-0.1-0.5-0.3-0.6c-0.2-0.2-0.4-0.3-0.6-0.3h-6.6c0,0,0,0,0,0H246c0,0,0,0,0,0h-6.2c-0.3,0-0.5,0.1-0.6,0.3
							c-0.2,0.2-0.3,0.4-0.3,0.6C238.9,10.9,239,11.1,239.2,11.2z"/>
					</g>
					<g>
						<path class="st1" d="M242.1,13.6c-0.2,0-0.4,0.1-0.5,0.3c-0.1,0.2-0.1,0.4-0.1,0.6c0.9,3.4,1.5,6.6,1.8,9.6
							c0,0.2,0.2,0.4,0.4,0.6c0.2,0.1,0.4,0.2,0.7,0.1c0.3-0.1,0.5-0.2,0.6-0.4c0.2-0.2,0.2-0.5,0.2-0.7c-0.4-2.9-1-6-2-9.5
							c-0.1-0.2-0.2-0.4-0.4-0.5C242.5,13.6,242.3,13.6,242.1,13.6z"/>
					</g>
					<g>
						<path class="st1" d="M256.2,26.7c-0.2-0.2-0.4-0.3-0.6-0.3h-5.8c-0.1,0-0.1,0-0.1-0.1c0,0,0-0.1,0-0.1
							c0.6-1.5,1.2-3.3,1.8-5.4c0.6-2.1,1.2-4.2,1.7-6.3c0.1-0.3,0-0.5-0.1-0.7c-0.1-0.2-0.4-0.4-0.6-0.4c-0.1,0-0.1,0-0.2,0
							c-0.2,0-0.4,0.1-0.6,0.2c-0.2,0.2-0.4,0.4-0.4,0.7c-0.4,2-0.9,4.1-1.5,6.3c-0.6,2.3-1.2,4.2-1.8,5.8c0,0.1-0.1,0.2-0.3,0.2
							h-8.6c-0.3,0-0.5,0.1-0.6,0.3c-0.2,0.2-0.3,0.4-0.3,0.6s0.1,0.5,0.3,0.6c0.2,0.2,0.4,0.3,0.6,0.3h16.5c0.2,0,0.4-0.1,0.6-0.3
							c0.2-0.2,0.3-0.4,0.3-0.6S256.4,26.9,256.2,26.7z"/>
					</g>
					<g>
						<path class="st1" d="M239,5c-0.1-0.2-0.3-0.4-0.5-0.4c-0.1,0-0.2,0-0.3,0c-0.1,0-0.3,0-0.4,0.1c-0.2,0.1-0.4,0.3-0.5,0.5
							c-0.7,1.8-1.6,3.5-2.7,5.1c-1.1,1.6-2.2,3.1-3.4,4.3c-0.2,0.2-0.3,0.5-0.4,0.8c0,0.1,0,0.1,0,0.1c0,0.3,0.1,0.5,0.2,0.7
							c0.1,0.2,0.3,0.4,0.6,0.4c0.3,0,0.5,0,0.7-0.2c0.8-0.9,1.6-1.8,2.4-2.9c0,0,0,0,0.1,0s0,0,0,0.1v15.1c0,0.3,0.1,0.5,0.3,0.6
							c0.2,0.2,0.4,0.3,0.6,0.3c0.2,0,0.5-0.1,0.6-0.3c0.2-0.2,0.3-0.4,0.3-0.6V10.8c0-0.1,0-0.3,0.1-0.4c0.9-1.6,1.7-3.2,2.4-4.8
							C239.1,5.4,239.1,5.2,239,5z"/>
					</g>
				</g>
				<g>
					<circle class="st1" cx="247" cy="7" r="1.6"/>
				</g>
			</g>
		</g>
	</g>
	<g>
		<g>
		</g>
		<g>
		</g>
		<g>
		</g>
		<g>
		</g>
		<g>
			<g>
				<path class="st3" d="M50.4,48.1c0.4,0.5,0.9,1,1.4,1.5c0.5,0.5,0.9,0.9,1.4,1.3c3,2.6,6.5,4.5,10.3,5.6c-1.1-3.8-3-7.3-5.6-10.3
					c-0.4-0.5-0.8-0.9-1.3-1.4s-0.9-0.9-1.4-1.3c-0.2-0.1-0.3-0.3-0.5-0.4c-0.3-0.3-0.7-0.5-1-0.8c-0.2-0.1-0.4-0.3-0.6-0.4
					c-0.3-0.2-0.7-0.5-1-0.7c-0.2-0.1-0.4-0.3-0.6-0.4c-0.4-0.2-0.7-0.4-1.1-0.6c-0.2-0.1-0.4-0.2-0.6-0.3c-0.4-0.2-0.8-0.4-1.2-0.6
					c-0.2-0.1-0.3-0.2-0.5-0.2c-0.6-0.3-1.2-0.5-1.7-0.7c-0.1,0-0.2-0.1-0.3-0.1c-0.4-0.1-0.9-0.3-1.3-0.4c-0.8-0.2-1.5-0.4-2.3-0.6
					c-0.3-0.1-0.7-0.1-1-0.1c0,0,0,0,0,0c-0.4-0.1-0.7-0.1-1.1-0.1c-0.2,0-0.5-0.1-0.7-0.1c-0.8-0.1-1.6-0.1-2.4-0.1
					c-0.7,0-1.3,0-2,0.1c0,0,0,0-0.1,0c0-0.1,0-0.2,0.1-0.3c0,0,0-0.1,0-0.1c0.2-0.9,0.3-1.8,0.4-2.7c0.5,0,1,0,1.6,0l0,0
					c0.1,0,0.3,0,0.4,0c0.4,0,0.8,0,1.2,0c0.2,0,0.5,0,0.7,0.1c0.3,0,0.7,0.1,1,0.1c0.8,0.1,1.7,0.2,2.5,0.4
					c0.6,0.1,1.1,0.3,1.7,0.4c0.3,0.1,0.6,0.2,0.9,0.2c0.4,0.1,0.8,0.2,1.2,0.4c0.3,0.1,0.6,0.2,0.9,0.3c0.4,0.1,0.8,0.3,1.1,0.4
					c0.3,0.1,0.6,0.2,0.9,0.4c0.4,0.2,0.7,0.3,1.1,0.5c0.3,0.1,0.6,0.3,0.8,0.4c0.4,0.2,0.7,0.4,1.1,0.6c0.3,0.2,0.5,0.3,0.8,0.5
					c0.4,0.2,0.7,0.5,1.1,0.8c0.2,0.2,0.5,0.3,0.7,0.5c0.4,0.3,0.8,0.6,1.1,0.9c0.2,0.2,0.4,0.3,0.6,0.5c0.6,0.5,1.1,1,1.6,1.5
					c0.6,0.6,1.2,1.3,1.8,2c3.3,3.9,5.5,8.5,6.4,13.6l0.4,2.2L65.2,60c-5-1-9.7-3.2-13.6-6.4c-0.7-0.6-1.4-1.2-2-1.8
					c-0.5-0.5-0.9-1-1.4-1.5c-2.8-3.2-4.9-6.9-6.1-10.9c0,0,0,0,0,0c1.2,0.2,2.4,0.6,3.5,1C46.8,43.1,48.4,45.7,50.4,48.1z
					 M43.5,32.4c0,0,0.1,0,0.1,0c0.1,0,0.2,0.1,0.3,0.1c0,0,0,0,0-0.1c-0.1-0.7-0.1-1.3-0.1-2c0-0.8,0.1-1.6,0.1-2.4
					c0-0.2,0.1-0.4,0.1-0.7c0-0.4,0.1-0.7,0.1-1.1c0,0,0,0,0,0c0-0.3,0.1-0.7,0.1-1c0.2-0.8,0.4-1.6,0.6-2.3c0,0,0,0,0,0
					c0.1-0.2,0.1-0.4,0.2-0.6c0.1-0.2,0.1-0.4,0.2-0.6c0-0.1,0.1-0.2,0.1-0.3c0.2-0.6,0.4-1.2,0.7-1.7c0.1-0.2,0.2-0.3,0.2-0.5
					c0.2-0.4,0.4-0.8,0.6-1.2c0.1-0.2,0.2-0.4,0.3-0.6c0.2-0.3,0.4-0.7,0.6-1c0.1-0.2,0.3-0.4,0.4-0.6c0.2-0.3,0.4-0.7,0.7-1
					c0.1-0.2,0.3-0.4,0.4-0.6c0.3-0.3,0.5-0.7,0.8-1c0.1-0.2,0.3-0.3,0.4-0.5c0.4-0.5,0.8-0.9,1.3-1.4c3.3-3.3,7.3-5.6,11.7-6.9
					c-1.3,4.4-3.6,8.4-6.9,11.7c-0.5,0.5-1,0.9-1.5,1.4c-2.3,2-5,3.6-7.8,4.7c-0.4,1.1-0.7,2.3-1,3.5c0,0,0,0,0,0
					c4-1.2,7.7-3.3,10.9-6.1c0.5-0.4,1-0.9,1.5-1.4C63,13.9,65.9,8.5,67,2.6l0.4-2.2l-2.2,0.4c-5.9,1.1-11.3,4-15.6,8.3
					c-0.5,0.5-1,1.1-1.5,1.6c-0.2,0.2-0.3,0.4-0.5,0.6c-0.3,0.4-0.6,0.7-0.9,1.1c-0.2,0.2-0.3,0.5-0.5,0.7c-0.3,0.4-0.5,0.7-0.7,1.1
					c-0.2,0.3-0.3,0.5-0.5,0.8c-0.2,0.4-0.4,0.7-0.6,1.1c-0.2,0.3-0.3,0.6-0.4,0.9c-0.2,0.4-0.4,0.7-0.5,1.1
					c-0.1,0.3-0.3,0.6-0.4,0.9c-0.2,0.4-0.3,0.7-0.4,1.1c-0.1,0.3-0.2,0.6-0.3,0.9c-0.1,0.4-0.3,0.8-0.4,1.1c-0.1,0.3-0.2,0.6-0.3,1
					c-0.1,0.2-0.1,0.4-0.2,0.6c-0.1,0.3-0.2,0.7-0.2,1c-0.2,0.8-0.3,1.6-0.4,2.5c0,0.3-0.1,0.7-0.1,1c0,0.2,0,0.5-0.1,0.7
					c0,0.3,0,0.7,0,1c0,0.2,0,0.4,0,0.5c0,0.5,0,1.1,0,1.6C41.7,32.1,42.6,32.2,43.5,32.4z M17.7,19.6c0.2,0.2,0.4,0.3,0.6,0.5
					c0.4,0.3,0.7,0.6,1.1,0.9c0.2,0.2,0.5,0.3,0.7,0.5c0.4,0.2,0.7,0.5,1.1,0.7c0.3,0.2,0.5,0.3,0.8,0.5c0.4,0.2,0.7,0.4,1.1,0.6
					c0.3,0.2,0.6,0.3,0.9,0.4c0.4,0.2,0.7,0.4,1.1,0.5c0.3,0.1,0.6,0.3,0.9,0.4c0.4,0.2,0.7,0.3,1.1,0.4c0.3,0.1,0.6,0.2,1,0.3
					c0.4,0.1,0.7,0.3,1.1,0.4c0.3,0.1,0.7,0.2,1,0.3c0.1,0,0.2,0.1,0.3,0.1c0.4,0.1,0.9,0.2,1.3,0.3c0.8,0.2,1.7,0.3,2.6,0.4
					c0.2,0,0.3,0,0.5,0c0.8,0.1,1.6,0.1,2.5,0.1c0,0,0.1,0,0.1,0c0.6,0,1.2,0,1.8,0c0.1-0.6,0.2-1.3,0.3-1.9
					c0.1-0.3,0.1-0.5,0.1-0.7c0-0.1,0.1-0.3,0.1-0.4c-0.1,0-0.1,0-0.2,0c-0.7,0-1.3,0.1-2,0.1c-0.1,0-0.1,0-0.2,0
					c-0.7,0-1.4-0.1-2.1-0.1c-0.3,0-0.5-0.1-0.8-0.1c-0.3,0-0.7-0.1-1-0.1c0,0,0,0,0,0c-0.3,0-0.7-0.1-1-0.1
					c-0.8-0.2-1.6-0.4-2.3-0.6l0,0c-0.2-0.1-0.4-0.1-0.6-0.2c-0.2-0.1-0.4-0.1-0.6-0.2c-0.2-0.1-0.3-0.1-0.4-0.1
					c-0.6-0.2-1.2-0.4-1.7-0.7c-0.2-0.1-0.3-0.2-0.5-0.2c-0.4-0.2-0.8-0.4-1.2-0.6c-0.2-0.1-0.4-0.2-0.6-0.3c-0.4-0.2-0.7-0.4-1-0.6
					c-0.2-0.1-0.4-0.3-0.6-0.4c-0.3-0.2-0.7-0.4-1-0.7c-0.2-0.1-0.4-0.3-0.6-0.4c-0.3-0.3-0.7-0.5-1-0.8c-0.2-0.1-0.3-0.3-0.5-0.4
					c-0.5-0.4-0.9-0.8-1.4-1.3c-0.4-0.4-0.9-0.9-1.3-1.4c-2.6-3-4.5-6.5-5.6-10.3c3.8,1.1,7.3,3,10.3,5.6c0.5,0.4,0.9,0.8,1.3,1.3
					c0.5,0.5,0.9,1,1.4,1.5c2,2.3,3.6,5,4.7,7.8c1.1,0.4,2.3,0.7,3.5,1c0,0,0,0,0,0c-1.2-4-3.3-7.7-6.1-10.9c-0.4-0.5-0.9-1-1.4-1.5
					c-0.6-0.6-1.3-1.2-2-1.8C19.2,4,14.6,1.7,9.6,0.8L7.4,0.4l0.4,2.2c1,5,3.2,9.7,6.4,13.6c0.6,0.7,1.2,1.4,1.8,2
					C16.6,18.7,17.1,19.2,17.7,19.6z M9.6,60c5.9-1.1,11.3-4,15.6-8.3c0.5-0.5,1-1.1,1.5-1.6c0.2-0.2,0.3-0.4,0.5-0.6
					c0.3-0.4,0.6-0.7,0.9-1.1c0.2-0.2,0.3-0.5,0.5-0.7c0.2-0.4,0.5-0.7,0.7-1.1c0.2-0.3,0.3-0.5,0.5-0.8c0.2-0.4,0.4-0.7,0.6-1.1
					c0.2-0.3,0.3-0.6,0.4-0.8c0.2-0.4,0.4-0.7,0.5-1.1c0.1-0.3,0.3-0.6,0.4-0.9c0.2-0.4,0.3-0.7,0.4-1.1c0.1-0.3,0.2-0.6,0.3-0.9
					c0.1-0.4,0.3-0.8,0.4-1.1c0.1-0.3,0.2-0.6,0.3-1c0.1-0.5,0.3-1.1,0.4-1.6c0.2-0.8,0.3-1.6,0.4-2.4c0-0.1,0-0.1,0-0.2
					c0-0.2,0-0.3,0.1-0.5c0.1-0.8,0.1-1.6,0.1-2.4c0,0,0-0.1,0-0.1c0-0.6,0-1.2-0.1-1.7c-0.7-0.1-1.3-0.2-2-0.3
					c-0.2,0-0.5-0.1-0.7-0.1c-0.1,0-0.3-0.1-0.4-0.1c0,0.1,0,0.1,0,0.2c0.1,0.7,0.1,1.5,0.1,2.2c0,0.7,0,1.4-0.1,2.1
					c0,0.2-0.1,0.5-0.1,0.7c0,0.3-0.1,0.7-0.1,1c0,0,0,0,0,0c0,0.3-0.1,0.7-0.1,1c-0.2,0.8-0.4,1.6-0.6,2.3c0,0,0,0,0,0
					c-0.1,0.2-0.1,0.4-0.2,0.6c-0.1,0.2-0.1,0.4-0.2,0.6c0,0.1-0.1,0.2-0.1,0.3c-0.2,0.6-0.4,1.2-0.7,1.7c-0.1,0.2-0.1,0.3-0.2,0.5
					c-0.2,0.4-0.4,0.8-0.6,1.2c-0.1,0.2-0.2,0.4-0.3,0.6c-0.2,0.4-0.4,0.7-0.6,1c-0.1,0.2-0.3,0.4-0.4,0.6c-0.2,0.3-0.4,0.7-0.7,1
					c-0.1,0.2-0.3,0.4-0.4,0.6c-0.3,0.3-0.5,0.7-0.8,1c-0.1,0.2-0.2,0.3-0.4,0.5c-0.4,0.5-0.8,0.9-1.3,1.4
					c-3.3,3.3-7.3,5.6-11.7,6.9C12.6,52,15,48,18.2,44.8c0.5-0.5,1-0.9,1.5-1.4c2.3-2,5-3.6,7.8-4.7c0.4-1.1,0.7-2.3,1-3.5
					c0,0,0,0,0,0c-4,1.2-7.7,3.3-10.9,6.1c-0.5,0.4-1,0.9-1.5,1.4c-4.3,4.3-7.1,9.7-8.3,15.6l-0.4,2.2L9.6,60z"/>
			</g>
		</g>
		<g>
			<g>
				<circle class="st4" cx="37.4" cy="57.1" r="3.7"/>
			</g>
			<g>
				<circle class="st4" cx="37.4" cy="3.7" r="3.7"/>
			</g>
		</g>
		<g>
			<g>
				<path class="st4" d="M70,43c-0.1,0-0.2,0-0.2,0c-2.4-0.1-3.9-1.5-4.3-3.8c-0.4-2.6-1.6-3.9-4.1-4.1c-2.4-0.3-3.9-2-4-4.5
					c0-2.6,1.4-4.4,4-4.7c1.3-0.2,3-0.8,3.7-2.7c0.1-0.3,0.2-0.7,0.3-1c0.2-0.6,0.4-1.3,0.7-1.9c1-1.9,3.1-2.8,5-2.2l0,0
					c1.8,0.6,3.2,2.6,3.3,4.7c0,1.9-1,3.4-2.8,4.1c-0.4,0.1-0.8,0.2-1.1,0.3l-0.3,0C68,27.5,67,28.6,67,30.4c0,1.8,1,2.8,3.3,3.3
					c3.1,0.6,4.7,2.6,4.4,5.2C74.4,41.2,72.4,43,70,43z M70,19.5c-0.9,0-1.8,0.7-2.2,1.4c-0.3,0.5-0.4,1.1-0.6,1.6
					c-0.1,0.4-0.2,0.7-0.4,1.1c-0.8,2.1-2.6,3.5-5.1,3.8c-1.7,0.2-2.5,1.2-2.5,3c0,1.6,0.9,2.6,2.4,2.8c3.3,0.4,5.1,2.2,5.6,5.6
					c0.2,1.5,1.1,2.2,2.6,2.3c1.5,0.1,3-1,3.2-2.6c0.3-2.1-1.5-2.9-3-3.3c-1.2-0.2-4.7-1-4.7-4.9c0-1.9,0.8-4.3,4.7-5l0.3-0.1
					c0.3,0,0.5-0.1,0.8-0.2c1.4-0.6,1.7-1.6,1.7-2.4c0-1.4-0.9-2.8-2.1-3.2C70.4,19.5,70.2,19.5,70,19.5z"/>
			</g>
			<g>
				<path class="st4" d="M4.8,43c-0.4,0-0.8-0.1-1.2-0.2h0c-1.8-0.6-3.2-2.6-3.3-4.7c0-1.9,1-3.4,2.8-4.1c0.4-0.1,0.8-0.2,1.1-0.3
					l0.3,0c2.3-0.4,3.3-1.4,3.2-3.3c0-1.8-1-2.8-3.3-3.3c-3.1-0.6-4.7-2.6-4.4-5.2c0.3-2.5,2.5-4.2,5-4.1c2.4,0.1,3.9,1.5,4.3,3.8
					c0.4,2.6,1.6,3.9,4.1,4.1c2.4,0.3,3.9,2,4,4.5c0,2.6-1.4,4.4-4,4.7c-1.3,0.2-3,0.8-3.7,2.7c-0.1,0.3-0.2,0.6-0.3,1
					c-0.2,0.6-0.4,1.3-0.7,1.9C7.8,42.1,6.3,43,4.8,43z M4.1,41.1c1.2,0.4,2.4-0.4,2.9-1.3c0.3-0.5,0.4-1.1,0.6-1.7
					c0.1-0.4,0.2-0.7,0.4-1.1c0.8-2.1,2.6-3.5,5.1-3.8c1.7-0.2,2.5-1.2,2.5-3c0-1.6-0.9-2.6-2.4-2.8c-3.3-0.4-5.1-2.2-5.6-5.6
					c-0.2-1.5-1.1-2.2-2.6-2.3c-1.5-0.1-3,1-3.2,2.6c-0.3,2.1,1.5,2.9,3,3.3c1.2,0.2,4.7,1,4.7,4.9c0,1.9-0.8,4.3-4.7,5l-0.3,0.1
					c-0.3,0-0.5,0.1-0.7,0.2C2.3,36.1,2,37.2,2,38C2.1,39.3,3,40.7,4.1,41.1L4.1,41.1z"/>
			</g>
		</g>
	</g>
</g>
</svg>
